<?xml version="1.0" standalone="no"?>
<!DOCTYPE svg PUBLIC "-//W3C//DTD SVG 1.1//EN" "http://www.w3.org/Graphics/SVG/1.1/DTD/svg11.dtd" >
<svg xmlns="http://www.w3.org/2000/svg" xmlns:xlink="http://www.w3.org/1999/xlink" version="1.1">
<metadata>
Created by FontForge 20170731 at Mon Jul  6 18:20:43 2009
 By Aleksey,,,
Copyright evchim 2008
</metadata>
<defs>
<font id="Elder-Futhark" horiz-adv-x="1280" >
  <font-face 
    font-family="Elder Futhark"
    font-weight="400"
    font-stretch="normal"
    units-per-em="1024"
    panose-1="0 0 4 0 0 0 0 0 0 0"
    ascent="819"
    descent="-205"
    x-height="1216"
    cap-height="1280"
    bbox="0 0 1280 1280"
    underline-thickness="51"
    underline-position="26"
    unicode-range="U+000D-007A"
  />
<missing-glyph 
d="M640 181v204h-204v-204h204zM843 419v204h-407v-204h407zM640 656v204h-204v-204h204zM843 894v202h-203q-85 0 -144 -58q-60 -61 -60 -144h407zM0 0v1280h1280v-1280h-1280z" />
    <glyph glyph-name=".notdef" 
d="M640 181v204h-204v-204h204zM843 419v204h-407v-204h407zM640 656v204h-204v-204h204zM843 894v202h-203q-85 0 -144 -58q-60 -61 -60 -144h407zM0 0v1280h1280v-1280h-1280z" />
    <glyph glyph-name="glyph1" horiz-adv-x="0" 
 />
    <glyph glyph-name="glyph1" horiz-adv-x="0" 
 />
    <glyph glyph-name="uni000D" unicode="&#xd;" horiz-adv-x="0" 
 />
    <glyph glyph-name="space" unicode=" " 
d="M704 704l-64 64l64 64l64 -64l-64 -64v0z" />
    <glyph glyph-name="comma" unicode="," 
d="M512 640l128 128l-128 128v-256v0zM384 256v1024h128v-256l128 -128l128 -128l-128 -128l-128 -128v-256h-128z" />
    <glyph glyph-name="period" unicode="." 
d="M576 448l-64 64l64 64l64 -64l-64 -64v0zM576 960l-64 64l64 64l64 -64l-64 -64v0z" />
    <glyph glyph-name="slash" unicode="/" 
d="M192 448l-64 64l64 64l64 -64l-64 -64v0zM960 448l-64 64l64 64l64 -64l-64 -64v0zM576 960l-64 64l64 64l64 -64l-64 -64v0z" />
    <glyph glyph-name="semicolon" unicode=";" 
d="M576 704l63 64h1v0l-64 64l-64 -64v0v-1l64 -63v0zM320 320l-64 64l128 128l128 128l-128 128l128 128l-128 128l-128 128l64 64l64 -64l128 -128v-1l64 -63l63 64h1l128 128l64 64l64 -64l-128 -128l-128 -128l128 -128l-128 -128l128 -128l128 -128l-64 -64l-64 64
l-128 128v0l-64 64l-64 -64v0l-128 -128l-64 -64v0z" />
    <glyph glyph-name="A" unicode="A" 
d="M384 256v1024h128l128 -128l128 -128l-64 -64l-64 64l-128 128v-256l128 -128l128 -128l-64 -64l-64 64l-128 128v-512h-128z" />
    <glyph glyph-name="B" unicode="B" horiz-adv-x="1216" 
d="M512 384l128 128v0l64 64l-64 63v1l-128 128l128 128v0l64 64l-64 63v1l-128 128v-768v0zM384 256v1024h128l128 -128l128 -128l64 -64l-64 -64l-128 -128l128 -128l64 -64l-64 -64l-128 -128l-128 -128h-128z" />
    <glyph glyph-name="C" unicode="C" horiz-adv-x="1152" 
d="M704 256l-128 128l-128 128l-128 128l-64 64l64 64l128 128l128 128l128 128l64 -64l-64 -64l-128 -128l-128 -128h-1l-63 -64l64 -64v0l128 -128l128 -128l64 -64l-64 -64v0z" />
    <glyph glyph-name="D" unicode="D" 
d="M128 384l128 128l128 128l128 128l-128 128l-128 128l-128 128v-768v0zM1024 384v768l-128 -128l-128 -128l-128 -128l128 -128l128 -128l128 -128v0zM0 256v1024h128l128 -128l128 -128l128 -128v-1l64 -63l63 64h1l128 128l128 128l128 128h128v-1024h-128l-128 128
l-128 128l-128 128v0l-64 64l-64 -64v0l-128 -128l-128 -128l-128 -128h-128z" />
    <glyph glyph-name="E" unicode="E" 
d="M256 256v1024h128l128 -128v-1l64 -63l63 64h1l128 128h128v-1024h-128v896l-128 -128l-64 -64l-64 64l-128 128v-896h-128z" />
    <glyph glyph-name="F" unicode="F" horiz-adv-x="1216" 
d="M384 256v1024h128v-256l128 128l128 128l64 -64l-64 -64l-128 -128l-128 -128v-128l128 128l128 128l64 -64l-64 -64l-128 -128l-128 -128v-384h-128z" />
    <glyph glyph-name="G" unicode="G" 
d="M192 320l-64 64l128 128l128 128l128 128l-128 128l-128 128l-128 128l64 64l64 -64l128 -128l128 -128v-1l64 -63l63 64h1l128 128l128 128l64 64l64 -64l-128 -128l-128 -128l-128 -128l128 -128l128 -128l128 -128l-64 -64l-64 64l-128 128l-128 128v0l-64 64l-64 -64
v0l-128 -128l-128 -128l-64 -64v0z" />
    <glyph glyph-name="H" unicode="H" 
d="M256 256v1024h128v-128l128 -128l128 -128l128 -128v512h128v-1024h-128v384l-128 128l-128 128l-128 128v-768h-128z" />
    <glyph glyph-name="I" unicode="I" 
d="M512 256v1024h128v-1024h-128z" />
    <glyph glyph-name="J" unicode="J" 
d="M576 320l-64 64l128 128l128 128l-128 128l-128 128l64 64l64 -64l128 -128l128 -128l-128 -128l-128 -128l-64 -64v0zM576 576l-64 64l-128 128l-128 128l128 128l128 128l64 64l64 -64l-128 -128l-128 -128l128 -128l128 -128l-64 -64v0z" />
    <glyph glyph-name="K" unicode="K" horiz-adv-x="1152" 
d="M704 256l-128 128l-128 128l-128 128l-64 64l64 64l128 128l128 128l128 128l64 -64l-64 -64l-128 -128l-128 -128h-1l-63 -64l64 -64v0l128 -128l128 -128l64 -64l-64 -64v0z" />
    <glyph glyph-name="L" unicode="L" horiz-adv-x="1216" 
d="M384 256v1024h128l128 -128l128 -128l64 -64l-64 -64l-128 128l-128 128v-896h-128z" />
    <glyph glyph-name="M" unicode="M" 
d="M384 896l128 128l-128 128v-256v0zM768 896v256l-128 -128l128 -128v0zM256 256v1024h128l128 -128v-1l64 -63l63 64h1l128 128h128v-1024h-128v512l-128 128v0l-64 64l-64 -64v0l-128 -128v-512h-128z" />
    <glyph glyph-name="N" unicode="N" 
d="M512 256v640l-128 128l-128 128l64 64l64 -64l128 -128v256h128v-384l128 -128l128 -128l-64 -64l-64 64l-128 128v-512h-128z" />
    <glyph glyph-name="O" unicode="O" 
d="M576 704l63 64h1l128 128l-128 128v0l-64 64l-64 -64v0l-128 -128l128 -128v-1l64 -63v0zM320 320l-64 64l128 128l128 128l-128 128l-128 128l128 128l128 128l64 64l64 -64l128 -128l128 -128l-128 -128l-128 -128l128 -128l128 -128l-64 -64l-64 64l-128 128v0l-64 64
l-64 -64v0l-128 -128l-64 -64v0z" />
    <glyph glyph-name="P" unicode="P" 
d="M384 256v1024h128l128 -128v-1l64 -63l63 64h1l64 64l64 -64l-128 -128l-64 -64l-64 64l-128 128v-768l128 128l64 64l64 -64l128 -128l-64 -64l-64 64v0l-64 64l-64 -64v0l-128 -128h-128z" />
    <glyph glyph-name="Q" unicode="Q" horiz-adv-x="1152" 
d="M576 512v640l-128 -128l-128 -128h-1l-63 -64l64 -64v0l128 -128l128 -128v0zM704 768l128 128v0l64 64l-64 63v1l-128 128v-384v0zM576 256v128l-128 128l-128 128l-128 128l-64 64l64 64l128 128l128 128l128 128h128l128 -128l128 -128l64 -64l-64 -64l-128 -128
l-128 -128v-384h-128z" />
    <glyph glyph-name="R" unicode="R" horiz-adv-x="1216" 
d="M512 768l128 128v0l64 64l-64 63v1l-128 128v-384v0zM384 256v1024h128l128 -128l128 -128l64 -64l-64 -64l-128 -128h-1l-63 -64l64 -64v0l128 -128l64 -64l-64 -64l-128 128l-128 128v-384h-128z" />
    <glyph glyph-name="S" unicode="S" horiz-adv-x="1152" 
d="M320 256l-64 64l64 64l128 128l128 128l-128 128l-128 128l128 128l128 128l128 128l64 -64l-64 -64l-128 -128l-128 -128l128 -128l128 -128l-128 -128l-128 -128l-128 -128v0z" />
    <glyph glyph-name="T" unicode="T" 
d="M512 256v768l-128 -128l-64 -64l-64 64l128 128l128 128l64 64l64 -64l128 -128l128 -128l-64 -64l-64 64l-128 128v-768h-128z" />
    <glyph glyph-name="U" unicode="U" 
d="M256 256v1024h128l128 -128l128 -128l128 -128l128 -128v-512h-128v512l-128 128l-128 128l-128 128v-896h-128z" />
    <glyph glyph-name="V" unicode="V" horiz-adv-x="1216" 
d="M512 768l128 128v0l64 64l-64 63v1l-128 128v-384v0zM384 256v1024h128l128 -128l128 -128l64 -64l-64 -64l-128 -128l-128 -128v-384h-128z" />
    <glyph glyph-name="W" unicode="W" horiz-adv-x="1216" 
d="M512 768l128 128v0l64 64l-64 63v1l-128 128v-384v0zM384 256v1024h128l128 -128l128 -128l64 -64l-64 -64l-128 -128l-128 -128v-384h-128z" />
    <glyph glyph-name="X" unicode="X" horiz-adv-x="1152" 
d="M576 256l-64 64l64 64l-128 128l-128 128l-128 128l-64 64l64 64l128 128l128 128l128 128l64 -64l-64 -64l-128 -128l-128 -128h-1l-63 -64l64 -64v0l128 -128l128 -128v-1l64 -63l63 64h1l128 128l-128 128l-128 128l128 128l128 128l128 128l64 -64l-64 -64l-128 -128
l-128 -128l128 -128l128 -128l-128 -128l-128 -128l-128 -128v0z" />
    <glyph glyph-name="Y" unicode="Y" 
d="M512 256l-128 128l-128 128l64 64l64 -64l128 -128v896h128l128 -128l128 -128l-64 -64l-64 64l-128 128v-896h-128z" />
    <glyph glyph-name="Z" unicode="Z" 
d="M512 256v640l-128 128l-128 128l64 64l64 -64l128 -128v256h128v-256l128 128l64 64l64 -64l-128 -128l-128 -128v-640h-128z" />
    <glyph glyph-name="a" unicode="a" 
d="M384 256v1024h128l128 -128l128 -128l-64 -64l-64 64l-128 128v-256l128 -128l128 -128l-64 -64l-64 64l-128 128v-512h-128z" />
    <glyph glyph-name="b" unicode="b" horiz-adv-x="1216" 
d="M512 384l128 128v0l64 64l-64 63v1l-128 128l128 128v0l64 64l-64 63v1l-128 128v-768v0zM384 256v1024h128l128 -128l128 -128l64 -64l-64 -64l-128 -128l128 -128l64 -64l-64 -64l-128 -128l-128 -128h-128z" />
    <glyph glyph-name="c" unicode="c" horiz-adv-x="1152" 
d="M704 256l-128 128l-128 128l-128 128l-64 64l64 64l128 128l128 128l128 128l64 -64l-64 -64l-128 -128l-128 -128h-1l-63 -64l64 -64v0l128 -128l128 -128l64 -64l-64 -64v0z" />
    <glyph glyph-name="d" unicode="d" 
d="M128 384l128 128l128 128l128 128l-128 128l-128 128l-128 128v-768v0zM1024 384v768l-128 -128l-128 -128l-128 -128l128 -128l128 -128l128 -128v0zM0 256v1024h128l128 -128l128 -128l128 -128v-1l64 -63l63 64h1l128 128l128 128l128 128h128v-1024h-128l-128 128
l-128 128l-128 128v0l-64 64l-64 -64v0l-128 -128l-128 -128l-128 -128h-128z" />
    <glyph glyph-name="e" unicode="e" 
d="M256 256v1024h128l128 -128v-1l64 -63l63 64h1l128 128h128v-1024h-128v896l-128 -128l-64 -64l-64 64l-128 128v-896h-128z" />
    <glyph glyph-name="f" unicode="f" horiz-adv-x="1216" 
d="M384 256v1024h128v-256l128 128l128 128l64 -64l-64 -64l-128 -128l-128 -128v-128l128 128l128 128l64 -64l-64 -64l-128 -128l-128 -128v-384h-128z" />
    <glyph glyph-name="g" unicode="g" 
d="M192 320l-64 64l128 128l128 128l128 128l-128 128l-128 128l-128 128l64 64l64 -64l128 -128l128 -128v-1l64 -63l63 64h1l128 128l128 128l64 64l64 -64l-128 -128l-128 -128l-128 -128l128 -128l128 -128l128 -128l-64 -64l-64 64l-128 128l-128 128v0l-64 64l-64 -64
v0l-128 -128l-128 -128l-64 -64v0z" />
    <glyph glyph-name="h" unicode="h" 
d="M256 256v1024h128v-128l128 -128l128 -128l128 -128v512h128v-1024h-128v384l-128 128l-128 128l-128 128v-768h-128z" />
    <glyph glyph-name="i" unicode="i" 
d="M512 256v1024h128v-1024h-128z" />
    <glyph glyph-name="j" unicode="j" 
d="M576 320l-64 64l128 128l128 128l-128 128l-128 128l64 64l64 -64l128 -128l128 -128l-128 -128l-128 -128l-64 -64v0zM576 576l-64 64l-128 128l-128 128l128 128l128 128l64 64l64 -64l-128 -128l-128 -128l128 -128l128 -128l-64 -64v0z" />
    <glyph glyph-name="k" unicode="k" horiz-adv-x="1152" 
d="M704 256l-128 128l-128 128l-128 128l-64 64l64 64l128 128l128 128l128 128l64 -64l-64 -64l-128 -128l-128 -128h-1l-63 -64l64 -64v0l128 -128l128 -128l64 -64l-64 -64v0z" />
    <glyph glyph-name="l" unicode="l" horiz-adv-x="1216" 
d="M384 256v1024h128l128 -128l128 -128l64 -64l-64 -64l-128 128l-128 128v-896h-128z" />
    <glyph glyph-name="m" unicode="m" 
d="M384 896l128 128l-128 128v-256v0zM768 896v256l-128 -128l128 -128v0zM256 256v1024h128l128 -128v-1l64 -63l63 64h1l128 128h128v-1024h-128v512l-128 128v0l-64 64l-64 -64v0l-128 -128v-512h-128z" />
    <glyph glyph-name="n" unicode="n" 
d="M512 256v640l-128 128l-128 128l64 64l64 -64l128 -128v256h128v-384l128 -128l128 -128l-64 -64l-64 64l-128 128v-512h-128z" />
    <glyph glyph-name="o" unicode="o" 
d="M576 704l63 64h1l128 128l-128 128v0l-64 64l-64 -64v0l-128 -128l128 -128v-1l64 -63v0zM320 320l-64 64l128 128l128 128l-128 128l-128 128l128 128l128 128l64 64l64 -64l128 -128l128 -128l-128 -128l-128 -128l128 -128l128 -128l-64 -64l-64 64l-128 128v0l-64 64
l-64 -64v0l-128 -128l-64 -64v0z" />
    <glyph glyph-name="p" unicode="p" 
d="M384 256v1024h128l128 -128v-1l64 -63l63 64h1l64 64l64 -64l-128 -128l-64 -64l-64 64l-128 128v-768l128 128l64 64l64 -64l128 -128l-64 -64l-64 64v0l-64 64l-64 -64v0l-128 -128h-128z" />
    <glyph glyph-name="q" unicode="q" horiz-adv-x="1152" 
d="M576 512v640l-128 -128l-128 -128h-1l-63 -64l64 -64v0l128 -128l128 -128v0zM704 768l128 128v0l64 64l-64 63v1l-128 128v-384v0zM576 256v128l-128 128l-128 128l-128 128l-64 64l64 64l128 128l128 128l128 128h128l128 -128l128 -128l64 -64l-64 -64l-128 -128
l-128 -128v-384h-128z" />
    <glyph glyph-name="r" unicode="r" horiz-adv-x="1216" 
d="M512 768l128 128v0l64 64l-64 63v1l-128 128v-384v0zM384 256v1024h128l128 -128l128 -128l64 -64l-64 -64l-128 -128h-1l-63 -64l64 -64v0l128 -128l64 -64l-64 -64l-128 128l-128 128v-384h-128z" />
    <glyph glyph-name="s" unicode="s" horiz-adv-x="1152" 
d="M320 256l-64 64l64 64l128 128l128 128l-128 128l-128 128l128 128l128 128l128 128l64 -64l-64 -64l-128 -128l-128 -128l128 -128l128 -128l-128 -128l-128 -128l-128 -128v0z" />
    <glyph glyph-name="t" unicode="t" 
d="M512 256v768l-128 -128l-64 -64l-64 64l128 128l128 128l64 64l64 -64l128 -128l128 -128l-64 -64l-64 64l-128 128v-768h-128z" />
    <glyph glyph-name="u" unicode="u" 
d="M256 256v1024h128l128 -128l128 -128l128 -128l128 -128v-512h-128v512l-128 128l-128 128l-128 128v-896h-128z" />
    <glyph glyph-name="v" unicode="v" horiz-adv-x="1216" 
d="M512 768l128 128v0l64 64l-64 63v1l-128 128v-384v0zM384 256v1024h128l128 -128l128 -128l64 -64l-64 -64l-128 -128l-128 -128v-384h-128z" />
    <glyph glyph-name="w" unicode="w" horiz-adv-x="1216" 
d="M512 768l128 128v0l64 64l-64 63v1l-128 128v-384v0zM384 256v1024h128l128 -128l128 -128l64 -64l-64 -64l-128 -128l-128 -128v-384h-128z" />
    <glyph glyph-name="x" unicode="x" horiz-adv-x="1152" 
d="M576 256l-64 64l64 64l-128 128l-128 128l-128 128l-64 64l64 64l128 128l128 128l128 128l64 -64l-64 -64l-128 -128l-128 -128h-1l-63 -64l64 -64v0l128 -128l128 -128v-1l64 -63l63 64h1l128 128l-128 128l-128 128l128 128l128 128l128 128l64 -64l-64 -64l-128 -128
l-128 -128l128 -128l128 -128l-128 -128l-128 -128l-128 -128v0z" />
    <glyph glyph-name="y" unicode="y" 
d="M512 256l-128 128l-128 128l64 64l64 -64l128 -128v896h128l128 -128l128 -128l-64 -64l-64 64l-128 128v-896h-128z" />
    <glyph glyph-name="z" unicode="z" 
d="M512 256v640l-128 128l-128 128l64 64l64 -64l128 -128v256h128v-256l128 128l64 64l64 -64l-128 -128l-128 -128v-640h-128z" />
  </font>
</defs>
</svg>
