<?xml version="1.0" standalone="no"?>
<!DOCTYPE svg PUBLIC "-//W3C//DTD SVG 1.1//EN" "http://www.w3.org/Graphics/SVG/1.1/DTD/svg11.dtd" >
<svg xmlns="http://www.w3.org/2000/svg" xmlns:xlink="http://www.w3.org/1999/xlink" version="1.1">
<metadata>
Created by FontForge 20170731 at Wed Feb 22 01:35:00 2012
 By Aleksey,,,
Copyright flansburg_design 2012
"VIKING, ELDER Runes Bold" is based on "VIKING, ELDER Runes" by "flansburg_design" (http://fontstruct.com/fontstructors/flansburg_design), which is based on "VIKING, YOUNGER Runes" by "flansburg_design" (http://fontstruct.com/fontstructors/flansburg_design)
</metadata>
<defs>
<font id="VIKING,-ELDER-Runes-Bold" horiz-adv-x="528" >
  <font-face 
    font-family="VIKING, ELDER Runes Bold"
    font-weight="400"
    font-stretch="normal"
    units-per-em="1024"
    panose-1="0 0 4 0 0 0 0 0 0 0"
    ascent="819"
    descent="-205"
    cap-height="800"
    bbox="0 0 800 800"
    underline-thickness="51"
    underline-position="26"
    unicode-range="U+0020-005A"
  />
<missing-glyph horiz-adv-x="88" 
d="M400 113v127h-128v-127h128zM527 262v127h-255v-127h255zM400 410v127h-128v-127h128zM527 559v126h-127q-53 0 -90 -37q-38 -37 -38 -89h255zM0 0v800h800v-800h-800z" />
    <glyph glyph-name=".notdef" horiz-adv-x="88" 
d="M400 113v127h-128v-127h128zM527 262v127h-255v-127h255zM400 410v127h-128v-127h128zM527 559v126h-127q-53 0 -90 -37q-38 -37 -38 -89h255zM0 0v800h800v-800h-800z" />
    <glyph glyph-name="glyph1" horiz-adv-x="48" 
 />
    <glyph glyph-name="glyph2" horiz-adv-x="240" 
 />
    <glyph glyph-name="space" unicode=" " horiz-adv-x="336" 
 />
    <glyph glyph-name="A" unicode="A" horiz-adv-x="368" 
d="M0 0v800h48l272 -272v-96h-48l-176 176v-80l224 -224v-96h-48l-176 176v-384h-96z" />
    <glyph glyph-name="B" unicode="B" horiz-adv-x="400" 
d="M96 192l104 104l-104 104l104 104l-104 104v-416v0zM0 0v800h48l296 -296l-104 -104l104 -104l-296 -296h-48z" />
    <glyph glyph-name="C" unicode="C" horiz-adv-x="416" 
d="M96 272l128 128l-128 128v-256v0zM0 0v800h96v-128l272 -272l-272 -272v-128h-96z" />
    <glyph glyph-name="D" unicode="D" horiz-adv-x="448" 
d="M96 336l32 64l-32 64v-128v0zM288 336v128l-32 -64l32 -64v0zM0 0v800h48l144 -288l144 288h48v-800h-48l-144 288l-144 -288h-48z" />
    <glyph glyph-name="E" unicode="E" horiz-adv-x="496" 
d="M0 0v800h48l168 -168l168 168h48v-800h-96v608l-120 -120l-120 120v-608h-96z" />
    <glyph glyph-name="F" unicode="F" horiz-adv-x="368" 
d="M0 0v800h96v-176l176 176h48v-96l-224 -224v-80l176 176h48v-96l-224 -224v-256h-96z" />
    <glyph glyph-name="G" unicode="G" horiz-adv-x="432" 
d="M0 0v144l128 256l-128 256v144h48l144 -288l144 288h48v-144l-128 -256l128 -256v-144h-48l-144 288l-144 -288h-48z" />
    <glyph glyph-name="H" unicode="H" horiz-adv-x="432" 
d="M0 0v800h96v-240l176 -176v416h96v-800h-96v240l-176 176v-416h-96z" />
    <glyph glyph-name="I" unicode="I" horiz-adv-x="160" 
d="M0 0v800h96v-800h-96z" />
    <glyph glyph-name="J" unicode="J" horiz-adv-x="608" 
d="M208 0v96l200 200l-208 208l72 72l280 -280l-296 -296h-48zM288 224l-280 280l296 296h48v-96l-200 -200l208 -208l-72 -72v0z" />
    <glyph glyph-name="K" unicode="K" horiz-adv-x="416" 
d="M320 80l-320 320l320 320h48v-96l-224 -224l224 -224v-96h-48z" />
    <glyph glyph-name="L" unicode="L" horiz-adv-x="368" 
d="M0 0v800h48l272 -272v-96h-48l-176 176v-608h-96z" />
    <glyph glyph-name="M" unicode="M" horiz-adv-x="496" 
d="M96 512l48 48l-48 48v-96v0zM336 512v96l-48 -48l48 -48v0zM0 0v800h48l168 -168l168 168h48v-800h-96v368l-120 120l-120 -120v-368h-96z" />
    <glyph glyph-name="O" unicode="O" 
d="M240 384l96 96l-96 96l-96 -96l96 -96v0zM80 80l-72 72l160 160l-168 168l240 240l240 -240l-168 -168l160 -160l-72 -72l-160 160l-160 -160v0z" />
    <glyph glyph-name="P" unicode="P" horiz-adv-x="448" 
d="M0 0v800h48l168 -168l136 136h48v-96l-184 -184l-120 120v-416l120 120l184 -184v-96h-48l-136 136l-168 -168h-48z" />
    <glyph glyph-name="Q" unicode="Q" 
d="M256 400v208l-104 -104l104 -104v0zM256 0v256l-248 248l296 296h48v-592l8 -8l48 48l72 -72l-176 -176h-48z" />
    <glyph glyph-name="R" unicode="R" horiz-adv-x="400" 
d="M96 400l104 104l-104 104v-208v0zM0 0v800h48l296 -296l-184 -184l176 -176v-96h-48l-192 192v-240h-96z" />
    <glyph glyph-name="S" unicode="S" horiz-adv-x="432" 
d="M288 0v416l-240 -240h-48v624h96v-432l240 240h48v-608h-96z" />
    <glyph glyph-name="T" unicode="T" 
d="M192 0v608l-144 -144h-48v96l240 240l240 -240v-96h-48l-144 144v-608h-96z" />
    <glyph glyph-name="U" unicode="U" horiz-adv-x="384" 
d="M0 0v528l272 272h48v-800h-96v608l-128 -128v-480h-96z" />
    <glyph glyph-name="V" unicode="V" horiz-adv-x="384" 
d="M160 0l-160 320v480h96v-432l64 -128l64 128v432h96v-480l-160 -320v0z" />
    <glyph glyph-name="W" unicode="W" horiz-adv-x="496" 
d="M96 192l48 48l-48 48v-96v0zM336 192v96l-48 -48l48 -48v0zM0 0v800h96v-368l120 -120l120 120v368h96v-800h-48l-168 168l-168 -168h-48z" />
    <glyph glyph-name="X" unicode="X" horiz-adv-x="480" 
d="M168 0v272h-8l-112 -112h-48v96l144 144l-144 144v96h48l112 -112h8v272h96v-272h8l112 112h48v-96l-144 -144l144 -144v-96h-48l-112 112h-8v-272h-96z" />
    <glyph glyph-name="Y" unicode="Y" 
d="M192 0v512l-192 192v96h48l144 -144v144h96v-144l144 144h48v-96l-192 -192v-512h-96z" />
    <glyph glyph-name="Z" unicode="Z" 
d="M192 0v352h-96v96h96v160l-160 -160h-32v112l240 240h48v-352h96v-96h-96v-160l144 144h48v-96l-240 -240h-48z" />
  </font>
</defs>
</svg>
