<svg xmlns="http://www.w3.org/2000/svg">
<defs>
<font id="BlankenburgUNZ1A" horiz-adv-x="359" >
  <font-face 
    font-family="Blankenburg_UNZ1A"
    font-weight="400"
    font-stretch="normal"
    units-per-em="1000"
    panose-1="2 1 7 6 7 3 9 1 8 4"
    ascent="800"
    descent="-200"
    x-height="467"
    cap-height="709"
    bbox="-100 -244 1000 832"
    underline-thickness="0"
    underline-position="0"
    unicode-range="U+0020-FB05"
  />
<missing-glyph horiz-adv-x="792" 
d="M504 824h3q1 0 5 -8l9.5 -19t11.5 -21.5t9 -16.5q5 -10 8.5 -19t3.5 -20q0 -8 -1.5 -15t-1.5 -15q0 -17 8 -34t8 -32q0 -20 -15 -33q0 -3 5 -3t5 -2h-14q-5 -2 -9 -6l43 -16q0 -1 0.5 -1t0.5 -1l-1 -1l-1 1q-2 0 -4 2q-1 0 -2 -2q-1 0 -1.5 2t-2.5 2q-1 0 -2 -1l-6 3h-2
q-6 0 -13 4t-13 4t-10 -3l-2 -2q-1 -1 -1 -2t1 -1l14 -8l-7 2q-3 2 -5.5 2.5t-4.5 2.5q-2 -1 -6.5 -1.5t-8.5 -3.5t-7 -8.5t-3 -15.5q0 -23 11 -47.5t15 -49.5q7 -28 4.5 -55.5t4.5 -53.5q1 0 9.5 14.5t19 32t20 33t12.5 18.5q10 19 21.5 37t19.5 39l3 6q2 18 11 37t9 49
q0 17 -4 32.5t-9.5 30.5t-9.5 30t-4 30q0 14 4.5 25t20.5 25h2q2 0 8 2l25 -6q12 -8 21.5 -24t15.5 -36t9 -40.5t3 -37.5q0 -47 -19.5 -99t-57.5 -107q0 -1 -3 -2q-6 -9 -16.5 -22.5t-20.5 -27.5t-17 -25.5t-7 -16.5q-11 -16 -19.5 -34t-8.5 -32q1 -1 3 -1t4 1.5t7 1.5
q26 10 49 10q20 0 31 -11l16 -20q8 -15 14.5 -33.5t6.5 -36.5q0 -24 -19 -40.5t-43.5 -27t-47.5 -16t-30 -7.5q-17 -1 -36 -5.5t-30 -6.5q-3 -6 -2.5 -13.5t-10.5 -9.5l-5 1q-8 -8 -27 -8q-5 0 -7.5 1.5t-4.5 1.5q-1 0 -1.5 -0.5t-1.5 -0.5h-1l-14 8l-5 10h-17l-7 -18
q-4 -2 -7 -2q-4 0 -12 2l-2 -7q-2 -2 -4 -2t-3 -1l-2 -1l-14 10l-1 -2h-1v2q-2 -1 -2.5 -2t-1.5 -2t-1 -2h-2q-5 3 -8.5 10t-3.5 17q-6 3 -14 2.5t-15 1.5l-22 3q-6 0 -16.5 2t-20 4t-17.5 4.5t-10 4.5q-45 11 -67 20t-36 9h-23l-7 2l-29 -5q13 -14 15 -30q0 -6 -4 -13
l-20 -9l-3 -5q-1 -1 -2 -1q0 -1 -7 -8l-12 -2l-3 3l-19 8q-3 0 -3 -6v-2q0 -1 1 -1l23 -11q2 -4 2 -6q0 -3 -2 -7l-5 -5q-1 0 -7 -2h-5l-9 4l-10 11l-6 -5q0 -5 5 -7t11 -4.5t11 -5.5t5 -10q0 -3 -2 -7v-2q6 -4 13 -5t7 -11q0 -11 -5 -14t-12 -3q-5 0 -10.5 1t-10.5 1l-2 -1

<glyph glyph-name=".notdef" horiz-adv-x="792" 
d="M504 824h3q1 0 5 -8l9.5 -19t11.5 -21.5t9 -16.5q5 -10 8.5 -19t3.5 -20q0 -8 -1.5 -15t-1.5 -15q0 -17 8 -34t8 -32q0 -20 -15 -33q0 -3 5 -3t5 -2h-14q-5 -2 -9 -6l43 -16q0 -1 0.5 -1t0.5 -1l-1 -1l-1 1q-2 0 -4 2q-1 0 -2 -2q-1 0 -1.5 2t-2.5 2q-1 0 -2 -1l-6 3h-2
q-6 0 -13 4t-13 4t-10 -3l-2 -2q-1 -1 -1 -2t1 -1l14 -8l-7 2q-3 2 -5.5 2.5t-4.5 2.5q-2 -1 -6.5 -1.5t-8.5 -3.5t-7 -8.5t-3 -15.5q0 -23 11 -47.5t15 -49.5q7 -28 4.5 -55.5t4.5 -53.5q1 0 9.5 14.5t19 32t20 33t12.5 18.5q10 19 21.5 37t19.5 39l3 6q2 18 11 37t9 49
q0 17 -4 32.5t-9.5 30.5t-9.5 30t-4 30q0 14 4.5 25t20.5 25h2q2 0 8 2l25 -6q12 -8 21.5 -24t15.5 -36t9 -40.5t3 -37.5q0 -47 -19.5 -99t-57.5 -107q0 -1 -3 -2q-6 -9 -16.5 -22.5t-20.5 -27.5t-17 -25.5t-7 -16.5q-11 -16 -19.5 -34t-8.5 -32q1 -1 3 -1t4 1.5t7 1.5
q26 10 49 10q20 0 31 -11l16 -20q8 -15 14.5 -33.5t6.5 -36.5q0 -24 -19 -40.5t-43.5 -27t-47.5 -16t-30 -7.5q-17 -1 -36 -5.5t-30 -6.5q-3 -6 -2.5 -13.5t-10.5 -9.5l-5 1q-8 -8 -27 -8q-5 0 -7.5 1.5t-4.5 1.5q-1 0 -1.5 -0.5t-1.5 -0.5h-1l-14 8l-5 10h-17l-7 -18
q-4 -2 -7 -2q-4 0 -12 2l-2 -7q-2 -2 -4 -2t-3 -1l-2 -1l-14 10l-1 -2h-1v2q-2 -1 -2.5 -2t-1.5 -2t-1 -2h-2q-5 3 -8.5 10t-3.5 17q-6 3 -14 2.5t-15 1.5l-22 3q-6 0 -16.5 2t-20 4t-17.5 4.5t-10 4.5q-45 11 -67 20t-36 9h-23l-7 2l-29 -5q13 -14 15 -30q0 -6 -4 -13
l-20 -9l-3 -5q-1 -1 -2 -1q0 -1 -7 -8l-12 -2l-3 3l-19 8q-3 0 -3 -6v-2q0 -1 1 -1l23 -11q2 -4 2 -6q0 -3 -2 -7l-5 -5q-1 0 -7 -2h-5l-9 4l-10 11l-6 -5q0 -5 5 -7t11 -4.5t11 -5.5t5 -10q0 -3 -2 -7v-2q6 -4 13 -5t7 -11q0 -11 -5 -14t-12 -3q-5 0 -10.5 1t-10.5 1l-2 -1
q-1 0 -1 -1l20 -38l-2 -4q-2 0 -6 5.5t-7.5 12.5t-6 13.5t-2.5 8.5q0 4 1 6q0 1 -1 2h-5q-1 -1 -1 -6v-5.5t1 -8.5l14 -22l-2 -4h-3q-4 10 -10.5 19.5t-6.5 22.5q3 3 3 6q0 1 -7.5 10t-7.5 18q0 6 4 12l4 6q-2 6 -2 9q0 14 8 19.5t9 10.5t5.5 12.5t9.5 15t8.5 12.5l3.5 5
l3 8l7 5h3l11 16l22 7h16l20 8l41 9q1 1 1 2q-11 33 -11 58q0 23 7.5 34t20.5 24l16 11q1 0 2 0.5t2 0.5l8 3h-1h1q1 0 3 1q13 -2 30.5 -8.5t31.5 -15.5q1 0 4 7.5l7 17.5t8 19.5t6 13.5q10 18 13.5 37.5t6 40.5l5 42t11.5 41q2 19 10.5 37.5t8.5 36.5q0 2 -0.5 4.5
t-0.5 4.5l-15 9l-17 -5l-5 1q-11 -3 -18.5 -9.5t-18.5 -6.5q-2 0 -3 0.5t-2 0.5l52 23l-15 12q-1 0 -9.5 -4t-9.5 -4q3 3 17 10q-9 9 -16.5 18.5t-7.5 23.5t6 26t6 25q0 11 -2 22.5t-5 25.5q0 10 6 25t13.5 29t14 24t7.5 10h5q3 0 6.5 -9.5t8 -21t9 -21.5t9.5 -13
q5 -4 10.5 -5t10.5 -1q8 0 15.5 1t15.5 1q14 0 28 -5t26 -5q7 0 13 1t10.5 6t9.5 17t11 34q7 28 24 31zM515 791q0 1 -1 5t-2.5 9t-3 9t-2.5 4q-4 0 -7.5 -5.5t-5.5 -11.5l-3.5 -10.5t-1.5 -2.5q1 -5 1 -11v-11v-17q0 -18 4 -31q-1 -2 -3 -4q-9 11 -8 27.5t-1 30.5
q-5 -16 -12 -32t-28 -16q-12 0 -26 5t-28 5q-8 0 -16.5 -1.5t-14.5 -1.5q-31 0 -44 25q-2 -1 1 -9.5t3 -30.5q-3 -8 -6 -10q-1 0 -3 2v19q0 10 -1.5 17.5t-3 14l-3 13t-1.5 14.5q2 0 3 1l-2 17q0 1 -3 4l-3 -2l1 1q-2 0 -7.5 -13t-11.5 -29t-10.5 -29.5l-4.5 -13.5
q0 -13 8.5 -22.5t8.5 -20.5q0 -9 -2 -15.5t-5 -11.5t-5 -9t-2 -10t3 -18t8 -12l7 1v-2l-6 -1l4 -10l5 -2l64 13l-52 -1q0 1 1 2l-2 2l1 1l16 1q1 1 4 1h8h21q8 0 18 -1t10 -5q0 -1 -2 -1h3q4 0 8 -1q0 -5 -2 -7h-4q-3 -6 -3 -7h1q-6 -6 -16 -6t-17 -3q0 -2 8.5 -3.5
t16.5 -1.5q14 0 26 4t12 12q0 5 -10 13t-12 14l2 4v2q10 3 31 3q16 -4 18 -10v-2l-22 -22v-6q1 -4 4 -4l11 -3q5 -2 9.5 -3.5t12.5 -1.5q17 0 27 7l-48 8l-6 6q1 6 5 7q1 -1 6 -1h5t8 1q23 0 45.5 -2.5t45.5 -3.5q5 8 11.5 14.5t6.5 16.5q0 7 -4 15t-9.5 16t-9.5 16t-4 14
q0 9 6 17t6 19q0 18 -9.5 35t-14.5 34zM-27 -6h-2q1 0 1 -9l4 -3q3 1 7 5zM-37 1h-3q-2 -2 -2 -9q0 -14 15 -22.5t32 -8.5h5l5 5q0 9 -3 11l-9 3q-8 0 -12 1l-10 -3q0 -1 -0.5 -1t-0.5 -1t3 -1l12 2l8 -1l2 -4q0 -1 1 -1q-4 -4 -10 -5q-14 2 -23 8t-9 17q0 6 2 9l-1 1h-2z
M-27 37l-1 1q-1 0 -4.5 -5t-3.5 -10q0 -16 12 -22.5t16 -6.5t4 3q0 2 -4 8t-9 6q-2 0 -2 -2l5 -3l3 -6q0 -1 -3 -1q-5 2 -12 8t-7 15q0 5 3.5 8t3.5 5q0 1 -0.5 1t-0.5 1zM-13 61l-4 -2l-4 -16q2 -4 2 -5v-1l5 -6q1 -3 3 -7l7 -1q2 -2 3 -2q2 0 3 0.5t3 0.5l2 -1l2 6l-7 7
l-11 3l12 -10l-1 -1l1 -1q-1 0 -1 -0.5t-1 -0.5t-1 1.5t-2 1.5h-3q-6 1 -12 21zM-4 70h-1q0 -1 -0.5 -1t-0.5 -1q0 -5 9 -12t19 -7q0 -1 -1 -1v4l-16 8zM1 82q-1 -1 -1 -3q4 -9 11 -14.5t12 -5.5q3 0 4 1l-20 12zM37 90v-3q1 1 2 1q-3 1 -3 2h1zM14 99l-1 1l-4 -2
q-1 -3 -1 -7q0 -8 3.5 -12t20.5 -12q4 1 7 1l-14 7q-10 10 -10 24h-1zM75 126q-8 -4 -17.5 -4t-17 -1t-12.5 -6t-5 -19q0 -5 3.5 -11.5t8.5 -9.5l12 -4l5 1q3 1 4 4q0 14 -6 21t-12 9q-3 0 -3 -3q0 -2 5 -5.5t10 -11.5q0 -2 -4 -9l-2 -1q-3 0 -7 4l-5 5h-2q-1 0 -1 1l-1 -1
h1q-3 4 -3 11q0 10 5 15t12.5 7t15 2.5t13.5 2.5h3q3 0 3 2v1h-3zM412 127l-22 -2q0 -8 -1.5 -16t-1.5 -16q0 -12 6 -18l16 2q6 24 6 42v5t-3 3zM121 135l-30 -3q-5 -2 -5 -7q0 -1 1 -2l45 -1l-7 13h-4zM307 146h-1q-1 -1 -1 -2q1 0 1 -0.5t1 -0.5v1q1 1 1 2h-1zM291 151
l-2 1q-2 -4 -2 -3q0 -2 2 -2q1 -1 3 -1q1 0 2 1q-1 2 -3 4zM503 158q-7 -1 -7 -6h2q3 0 8 5q-3 0 -3 1zM261 228l-3 -4q-1 -1 -3 -1h-4q-2 0 -2 -1l25 -7zM675 229l-1 -14q-18 -6 -35.5 -11t-32.5 -8l-25 -5t-12 -3q-6 -1 -10.5 -1.5t-9.5 -0.5q-8 0 -11 1q-1 -1 -1 -2
l14 -29q-1 -2 -3 -2t-3 2l-3 5q-1 1 -2 1q-10 -7 -24.5 -14t-25.5 -8q-6 -12 -6.5 -25t-1.5 -25q1 -5 7 -7q58 11 89 18.5t48 16.5t25.5 21t22.5 31q6 16 6 32q0 14 -5 27zM252 235l-1 1q-3 -6 -3 -7h1h1q4 1 5 4q-1 0 -3 2zM136 237h-1q-6 -20 -6 -36q0 -6 1.5 -20t4 -28.5
t5.5 -25t6 -10.5q50 -17 95.5 -28t75.5 -11q9 0 14 1q0 4 -0.5 12t-1.5 16.5t-3.5 15.5t-5.5 10q-4 -2 -10 -2h-9h-4h-7q-17 0 -21 -6t-9 -11q-7 2 -7 1.5t0 1.5l28 58q-20 7 -36.5 11.5t-33 10t-34.5 14.5t-40 26h-1zM241 244q-2 -1 -3 -3l-2 -4q0 -2 0.5 -3t0.5 -2v-2
q-2 -5 -3 -5v3l4.5 -3t3.5 -1q1 0 1.5 2t0.5 4l-4 6l3 6h1q-1 1 -1.5 1t-1.5 1zM596 249q-2 0 -2.5 -1.5t-2.5 -1.5t-2 1.5t-1 1.5q-3 -3 -3 -5t2 -2l12 5l-2 1q-1 0 -1 1zM572 255l-10 -5l-25 -18q2 -2 4 -2q7 0 20 3.5t20 8.5l-3 3l-4 -2l-4 5l4 7h-2zM217 258l-1 -3
q-2 -2 -6 -4q0 -1 0.5 -2.5t0.5 -2.5l-5 -5l24 -12l-2 4q0 5 1 4.5t3 1.5v11h-3q0 -5 -5 -5v-7l-4 -2q-5 2 -5 4l2 4l2 2v4q0 7 1 7t1 -1zM649 260l-8 -5q-5 -1 -8.5 -2.5t-8 -4t-12.5 -6t-22 -8.5q-12 -2 -25 -6t-24 -6q-2 1 -4 1q-3 -2 -3 -3v-4v-10q0 -9 4 -10.5t10 -1.5
q19 0 42 6.5t43 17.5q5 2 15.5 6.5t18.5 12.5v3q-7 12 -18 20zM205 264l-2 1l-1 -5l-5 -3q-1 -6 -3 -8l4 -4q0 -3 1 -3q0 1 1 2l7 19q0 1 -2 1zM160 265l-15 -11l-3 -5q-2 -2 -2 -3l20 -17q8 -2 19.5 -8t26.5 -13.5t34 -14t42 -8.5l2 9q0 1 1 2q0 4 -4 9l-20 3l-6 4
q-20 3 -32.5 11.5t-22.5 10.5q-10 6 -20 11t-17 14l-1 5q-1 1 -2 1zM184 266h3q1 0 1 -3q1 -1 -0.5 -2t-3.5 -1q-3 0 -3 3l2 3h1zM620 267l-17 -1q-2 -6 -4 -6v2q0 -2 0.5 -3t0.5 -2t-1 -1l4 5q0 1 1 1h3q1 -2 1 -4q0 -3 -2.5 -5t-2.5 -4v1q1 0 2 -0.5t3 -0.5q8 4 18 8
t16 10h-22zM175 271q-5 -2 -5.5 -2.5t-0.5 -2.5t2 -4l11 -8q2 0 2.5 -1.5t2.5 -1.5h1q0 1 -0.5 1t-0.5 1q0 4 3 9q1 3 3 6q1 0 2 -1zM523 314l-28 -149h16l5 3l14 2q0 6 -4.5 10.5t-4.5 17.5q0 16 2.5 25t6 14t9 8.5t11.5 8.5l-6 16zM281 327h-2q-6 -6 -11.5 -16t-10 -20.5
t-7 -20.5t-2.5 -15q0 -6 7.5 -12.5t16.5 -15t16.5 -19.5t7.5 -25q0 -12 -4 -23q1 -4 5 -4l22 -1q-4 11 -6.5 23.5t-4 24.5t-3.5 21.5t-5 15.5q-13 31 -19 87zM488 553q-6 -6 -29.5 -13t-46.5 -12q-8 2 -15 2t-15 3q-15 1 -29 7t-25 10v-7q0 -11 -4 -22.5t-8 -21.5
q-10 -29 -14 -56.5t-4 -56.5q0 -38 5 -75.5t12 -75.5q12 -42 15.5 -81t9.5 -79q-1 -3 -4 -5t-4 -4l-1 -8q0 -1 2 -1v1h1q1 1 2 1q2 -2 3 -4l-2 -7h3l7 26l4 2q2 -2 3 -1.5t1 -2.5q0 -5 -2 -10.5t-2 -9.5q0 -7 2 -9q0 6 2 6q4 -2 4.5 -5t1.5 -3q3 0 5 2q-1 5 -4 10t-3 10
q0 1 0.5 3.5t2.5 2.5t6 -10.5t9 -12.5q1 0 1.5 0.5t1.5 0.5v-1l-3 13q1 1 3 1q0 -1 5 -6q1 0 1 -1t1 -1v2h-1q0 1 1.5 4t1.5 8q0 4 -5 9h-1q-1 0 -2 1l-6 5q-2 5 -2 10.5v10.5q0 26 6.5 56t6.5 62q0 29 -2.5 57t-4.5 54q0 1 1 3t3 2q4 0 8 -13.5t6.5 -31.5t4 -36t1.5 -26
q0 -23 -3.5 -46t-8.5 -46q6 -2 10 -2q8 0 16 5l1 15q1 10 1.5 19t0.5 18q0 14 -0.5 28.5t-0.5 28.5q0 9 2 23.5t5 29t6 25t6 10.5q2 -2 2 -6q0 -6 -3 -15q-3 -22 -4 -43.5t-1 -44.5q0 -20 0.5 -41t0.5 -41q0 -24 -3.5 -36t-5.5 -27q4 -10 2.5 -17.5t6.5 -15.5h2l1 12l4 2
l4 -7h2q2 2 2 6q0 5 -5 17q0 1 2 3q5 0 8 -8t3 -12q0 -5 -3 -9t-3 -7l8 1q2 2 2 4v2l-1 -1l4 2q1 -1 4 -1q5 5 5 11q0 8 -5 10t-5 5v3t2 2l6 -3t3 -2l7 -18l4 -1q2 4 2 6q0 5 -5 13l-13 5q-3 9 -3 18q0 14 4 28t9 28q30 106 30 208q0 77 -16 148q-4 9 -4 38zM406 573
q-8 -3 -10 -5l15 2l-4 3h-1zM325 574l-14 -1q-1 -3 -1 -4q0 -2 13 -7t30 -9.5t34 -8t25 -3.5q20 -2 41.5 7.5t31.5 15.5l13 8q-2 1 -3.5 0.5t-3.5 1.5q-13 -2 -24.5 -7.5t-23.5 -5.5q-6 0 -10.5 2t-6.5 2q-5 0 -11.5 -4t-14.5 -4q-10 0 -17 6q-5 -2 -14 -2q-12 0 -23 4
t-21 9zM575 585l32 -5l-34 3l-2 4zM351 593q-7 -2 -17.5 -3t-20 -2t-17 -2t-8.5 -4l7 -6l4 -1l61 17zM286 605l6 -1v-2l-8 2zM405 617l-14 -2l-1 -1q0 -1 1 -1l13 -4q1 0 1 0.5t1 0.5t1 -0.5t1 -0.5l4 -9q2 8 3.5 9.5t5.5 1.5h2q0 1 0.5 1t0.5 1v1zM342 661q13 1 28 -8.5
t15 -24.5q0 -7 -3 -7q-2 0 -3 2.5t-4 2.5q-5 -2 -8 -3.5t-8 -1.5q-16 0 -29 13l-9 15l-1 2l-8 3q-1 0 -1 2v1q0 1 1 2zM375 718l-13 -44h-6q-1 0 -1 1l-1 1l-5 -1q-1 0 -2 1l-6 39q2 -3 4 -8t3.5 -10.5t2.5 -9.5t2 -4t1.5 9.5t2.5 15.5l2 -20l1 -1l1 1l13 30h1zM497 667
l4 -1v-4q0 -2 -4 -3q-16 -36 -36 -36q-5 0 -9.5 1.5t-9.5 2.5q-2 0 -2 -3.5t-2 -3.5q-6 0 -6 8q0 11 11 21.5t27 15.5q3 0 6.5 -0.5t6.5 -0.5q6 0 14 3zM483 701l-7 -21q-2 -1 -3 -1t-1 -1l10 23h1zM465 705v-25q-2 -1 -4 -1q-1 0 -1 -1v-1l2 1q0 -1 -2 3l4 24h1zM451 707
l6 -30q0 -2 -3 -2q-4 8 -4 16v16h1zM333 651h-1v-1q0 -6 9 -15l10 -4q0 2 -0.5 3t-0.5 3q0 8 4 12zM667 767q-14 -5 -19 -12.5t-5 -19.5q0 -7 3 -16q26 -50 26 -103q0 -33 -10 -65t-25.5 -61.5t-34 -56.5t-34.5 -49q-8 -16 -18 -30.5t-14 -34.5q1 -3 4 -11.5t7 -17.5
t7.5 -16t5.5 -7l1 1q3 21 13 37t18 35l26 45.5t32 51.5q28 42 48 90.5t20 114.5q0 26 -6 59.5t-23 53.5l-4 4q-1 1 -1 2q0 -1 1 -2q-8 8 -16 8h-2zM361 647h-1q1 -2 1 -5q0 -4 -2 -7.5t-2 -6.5q2 0 2.5 -0.5t2.5 -0.5q4 0 12 4q-2 3 -13 16zM458 650q-8 -4 -10 -10t-2 -7v-1
l9 -3q2 0 2.5 0.5t1.5 0.5h2q-4 7 -4 14q0 4 1 6zM472 657q-2 -2 -4 -2t-3 -1l-2 -1q0 -2 3 -3l2 -19q9 6 13 13.5t5 12.5h-14zM484 584l22 -8q6 1 6 4zM503 590l19 -6l1 1q1 0 1 0.5t1 0.5q0 2 -1 3z" />
    <glyph glyph-name="NULL" horiz-adv-x="0" 
 />
    <glyph glyph-name="nonmarkingreturn" horiz-adv-x="1000" 
 />
    <glyph glyph-name="Z" unicode="Z" horiz-adv-x="324" 
d="M218 544l-223 74l37 90l279 -95l-177 -196l160 -68v-443l-123 -109l-205 70l32 93l198 -67v390l-154 66z" />
    <glyph glyph-name="N" unicode="N" horiz-adv-x="421" 
d="M153 708l218 -74v-515l59 -36l-51 -84l-107 64v501l-131 45v-499l46 -24l-44 -87l-100 51v542l-50 26l46 87l96 -51z" />
    <glyph glyph-name="M" unicode="M" horiz-adv-x="612" 
d="M35 705l96 -50l20 53l187 -68l25 68l203 -74v-515l59 -36l-50 -84l-107 64v502l-114 41v-179h63l-24 -98h-39v-210l60 -36l-51 -84l-107 64v266h-73l24 98h49v138l-119 43v-498l47 -24l-45 -87l-100 51v542l-50 26z" />
    <glyph glyph-name="Y" unicode="Y" horiz-adv-x="415" 
d="M272 705l110 -61v-730l-116 -96l-216 43l143 143l-151 32v558l-56 27l45 87l107 -54v-541l145 -34v507l-58 33zM283 -84v148l-123 -125z" />
    <glyph glyph-name="X" unicode="X" horiz-adv-x="456" 
d="M427 562l-136 41l-33 -71v-125h106l-31 -98h-75v-167l207 -80l-111 -62l-181 73l-120 -83l-39 8l144 101v210h-109l32 98h79v167l-137 36l34 98l201 -62v-60l12 25l33 97l156 -50z" />
    <glyph glyph-name="K" unicode="K" horiz-adv-x="400" 
d="M140 0l-115 29v616l95 63h234l-42 -98h-188v-140l41 66l195 -36l-106 -124h95v-270l60 -18l-41 -88l-116 31v247h-110l119 140l-137 24v-335l55 -15z" />
    <glyph glyph-name="J" unicode="J" horiz-adv-x="333" 
d="M10 707l217 -37l39 -8v-190h54l-28 -98h-26v-474l-118 -106l-220 57l25 95l214 -55v483h-145l28 98h117v111l-205 34z" />
    <glyph glyph-name="T" unicode="T" horiz-adv-x="343" 
d="M192 612v-494l158 -42l-25 -94l-231 60v490l98 80h-181l17 99h347l-16 -99h-167z" />
    <glyph glyph-name="R" unicode="R" horiz-adv-x="422" 
d="M137 571v-238l131 97v118l-292 76l66 84l332 -83v-172l-111 -73l111 -30v-234l62 -37l-49 -84l-119 65v229l-131 44v-217l62 -37l-49 -84l-112 65v445z" />
    <glyph glyph-name="Q" unicode="Q" horiz-adv-x="404" 
d="M270 41v538l-141 31v-501l233 -113l-46 -87l-261 128l-27 13v576l107 83l236 -53v-576z" />
    <glyph glyph-name="I" unicode="I" 
d="M68 709l224 -47v-190h55l-28 -98h-27v-268l-117 -106l-180 47l24 95l175 -46v278h-144l28 98h116v111l-174 36z" />
    <glyph glyph-name="P" unicode="P" horiz-adv-x="440" 
d="M167 128l142 -24v452l-142 25v-453zM167 28v-201l-100 -63v280l-53 9l54 83v462l-45 7l17 98l368 -65v-524l-105 -108z" />
    <glyph glyph-name="U" unicode="U" horiz-adv-x="416" 
d="M264 -1l-217 73v516l-59 36l51 84l107 -64v-501l130 -45v499l-46 24l45 87l100 -51v-543l49 -26l-45 -87l-97 51z" />
    <glyph glyph-name="L" unicode="L" horiz-adv-x="386" 
d="M285 569l-105 45v-389l-58 -76l251 -52l-19 -97l-343 69l71 86v456l102 105l131 -53z" />
    <glyph glyph-name="F" unicode="F" horiz-adv-x="314" 
d="M12 -119l65 74l133 -118l15 8l-119 522h-60v98h38l-31 137l121 102l199 -71l-34 -92l-186 66l32 -142h103v-98h-81l111 -491l-178 -107z" />
    <glyph glyph-name="C" unicode="C" horiz-adv-x="325" 
d="M123 604v-472l174 -42l-24 -94l-244 59v577l103 72l180 -67l-28 -94z" />
    <glyph glyph-name="B" unicode="B" horiz-adv-x="409" 
d="M384 453l-103 -67l103 -36v-260l-113 -90l-229 56v539l-47 15l30 94l115 -37v-534l146 -36v197l-131 45l131 91v144l-146 44l61 86l148 -47l35 -10v-37v-157z" />
    <glyph glyph-name="H" unicode="H" horiz-adv-x="381" 
d="M325 579l-194 30v-233l34 70l191 -39v-580l-100 -63v562l-125 28v-242l46 -29l-53 -83l-92 59v577l94 72l229 -34z" />
    <glyph glyph-name="D" unicode="D" horiz-adv-x="433" 
d="M167 128l142 -24v452l-142 25v-453zM68 598l-46 7l18 98l367 -65v-524l-105 -108l-288 47l54 83v462z" />
    <glyph glyph-name="E" unicode="E" horiz-adv-x="390" 
d="M187 604v-137h163l-36 -98h-124v-237l171 -42l-23 -94l-244 59v314h-83l35 98h44v165l106 72l180 -67l-28 -94z" />
    <glyph glyph-name="G" unicode="G" horiz-adv-x="396" 
d="M267 89v253h-88l41 98h149v-312l-145 -128l-192 49v596l94 63h235l-43 -98h-188v-483z" />
    <glyph glyph-name="S" unicode="S" horiz-adv-x="382" 
d="M136 604v-235l26 -5l85 99l101 -26v-365l-102 -72l-232 80l28 94l213 -74v261l-44 10l-86 -100l-83 21v340l103 72l223 -73l-28 -94z" />
    <glyph glyph-name="O" unicode="O" horiz-adv-x="405" 
d="M276 103v475l-148 28v-475zM120 708l257 -52v-566l-93 -90l-258 52v567z" />
    <glyph glyph-name="W" unicode="W" horiz-adv-x="654" 
d="M30 707l113 -47v-502l134 -59v210h-94v98h97v167l-137 36l34 98l201 -62v-239h89v-98h-89v-167l136 -53v482l-136 38l34 99l201 -62v-569l-140 -77l-158 61l-66 -61l-207 80v515l-49 21z" />
    <glyph glyph-name="V" unicode="V" horiz-adv-x="419" 
d="M143 122l142 -24v467l-142 52l41 86l199 -71v-524l-105 -108l-288 47l54 83v468l-46 24l45 87l100 -51v-30v-506z" />
    <glyph glyph-name="A" unicode="A" horiz-adv-x="438" 
d="M136 571v-138h152v115l-300 76l67 84l331 -83v-503l63 -38l-50 -84l-111 65v269h-152v-212l63 -38l-50 -84l-111 65v440z" />
    <glyph glyph-name="a" unicode="a" horiz-adv-x="403" 
d="M131 379v-248l119 -35v257zM252 66l-41 -66l-181 59v338l113 80l209 -45v-308l58 -36l-50 -85l-85 50z" />
    <glyph glyph-name="b" unicode="b" horiz-adv-x="380" 
d="M243 99v245l-112 34v-245zM131 407l40 65l171 -53v-324l-119 -95l-191 57v605l99 46v-301v0z" />
    <glyph glyph-name="c" unicode="c" horiz-adv-x="288" 
d="M234 348l-112 25v-246l164 -41l-59 -86l-204 50v319l127 104l133 -29z" />
    <glyph glyph-name="d" unicode="d" 
d="M248 94v260l-267 274l71 68l287 -301v-305l-119 -90l-181 45v373l98 48v-344z" />
    <glyph glyph-name="e" unicode="e" horiz-adv-x="312" 
d="M324 406l-206 -273l164 -45l-42 -88l-221 57v303l105 111zM118 189l110 145l-110 36v-181z" />
    <glyph glyph-name="f" unicode="f" horiz-adv-x="224" 
d="M20 474h44v133l115 97l123 -74l-50 -84l-89 54v-126h61v-99h-61v-555l-99 -56v611h-44v99z" />
    <glyph glyph-name="g" unicode="g" horiz-adv-x="379" 
d="M90 -103l160 -38v201l-47 -61l-175 54v327l124 89l197 -40v-567l-125 -98l-210 50zM250 88v262l-123 24v-249z" />
    <glyph glyph-name="h" unicode="h" horiz-adv-x="337" 
d="M121 662v-246l45 51l150 -38v-603l-98 -54v580l-97 25v-253l62 -36l-49 -85l-112 64v545z" />
    <glyph glyph-name="i" unicode="i" horiz-adv-x="205" 
d="M44 466l104 -66v-276l62 -36l-49 -85l-111 64v279l-58 37zM40 636h85l-21 -134h-64v134z" />
    <glyph glyph-name="j" unicode="j" horiz-adv-x="182" 
d="M42 636h85l-21 -134h-64v134zM48 466l103 -66v-560l-83 -76l-80 61l65 59v462l-58 37z" />
    <glyph glyph-name="k" unicode="k" horiz-adv-x="298" 
d="M191 355l-70 35v-261l124 -45l-55 -84l-168 61v556l99 45v-248l54 58l88 -43l-54 -113h82l-42 -99h-124z" />
    <glyph glyph-name="l" unicode="l" horiz-adv-x="188" 
d="M125 662v-545l70 -26l-33 -91l-135 49v568z" />
    <glyph glyph-name="m" unicode="m" horiz-adv-x="624" 
d="M185 471l172 -62l36 62l176 -63v-284l61 -36l-48 -85l-111 64v271l-110 38v-252l61 -36l-48 -85l-111 64v271l-112 39v-253l62 -36l-49 -85l-111 64v279l-58 37l52 83l99 -63z" />
    <glyph glyph-name="n" unicode="n" horiz-adv-x="418" 
d="M49 466l96 -61l41 66l176 -63v-284l62 -36l-49 -85l-111 64v271l-112 37v-251l62 -36l-48 -85l-112 64v279l-58 37z" />
    <glyph glyph-name="o" unicode="o" horiz-adv-x="360" 
d="M157 472l176 -53v-331l-132 -88l-176 53v337zM233 92v254l-108 34v-254z" />
    <glyph glyph-name="p" unicode="p" horiz-adv-x="393" 
d="M43 466l92 -59l45 64l176 -63v-324l-110 -84l-100 26v-204l-98 -58v288l-55 15l55 70v209l-58 37zM146 376v-249l112 -29v240z" />
    <glyph glyph-name="q" unicode="q" horiz-adv-x="376" 
d="M123 377v-246l122 -40v261zM245 59l-45 -56l-176 56v323l124 90l195 -41v-615l-98 -52v295z" />
    <glyph glyph-name="r" unicode="r" horiz-adv-x="315" 
d="M189 471l144 -52l-59 -83l-119 42v-254l62 -36l-49 -85l-111 64v279l-58 37l53 83l92 -59z" />
    <glyph glyph-name="longs" unicode="&#x17f;" horiz-adv-x="179" 
d="M137 561v-738l-98 -59v803l91 95l107 -44l-20 -96z" />
    <glyph glyph-name="t" unicode="t" horiz-adv-x="208" 
d="M127 586v-112h61v-99h-61v-275l70 -26l-49 -86l-119 43v510z" />
    <glyph glyph-name="u" unicode="u" horiz-adv-x="417" 
d="M233 0l-176 62v285l-62 35l49 85l111 -64v-272l112 -39v255l-62 35l49 85l111 -64v-279l58 -37l-52 -83l-90 57z" />
    <glyph glyph-name="v" unicode="v" horiz-adv-x="401" 
d="M274 102v237l-123 37v-249zM136 412l44 59l193 -60v-316l-113 -91l-207 44v299l-61 35l50 85l85 -50z" />
    <glyph glyph-name="w" unicode="w" horiz-adv-x="611" 
d="M485 96v241l-112 39v-252zM47 466l94 -60l43 65l180 -58l37 58l182 -62v-319l-111 -91l-195 45l-30 -45l-194 60v287l-58 37zM151 378v-247l124 -40v248z" />
    <glyph glyph-name="x" unicode="x" horiz-adv-x="435" 
d="M386 335l-135 42v-85h69v-99h-69v-66l177 -37l-37 -92l-225 47l-40 -74l-103 32l47 90l83 -26v126h-66v99h66v47l-137 43l46 89l182 -58l35 58l158 -49z" />
    <glyph glyph-name="y" unicode="y" horiz-adv-x="398" 
d="M264 50l-34 -50l-176 62v285l-62 35l49 85l111 -64v-272l112 -38v254l-62 35l49 85l111 -64v-486v-55l-124 -98l-211 50l77 83l160 -38v191z" />
    <glyph glyph-name="z" unicode="z" horiz-adv-x="300" 
d="M175 332l-144 51l36 91l230 -81l-136 -134l110 -44v-342l-124 -109l-204 70l32 93l197 -68l1 290l-134 49z" />
    <glyph glyph-name="germandbls" unicode="&#xdf;" horiz-adv-x="416" 
d="M131 561v-738l-98 -59v803l92 95l213 -98l-68 -89l133 -70l-127 -163l111 -44v-326l-124 -109l-105 36l31 94l99 -34v273l-104 42l127 163l-136 70l71 91z" />
    <glyph glyph-name="period" unicode="." horiz-adv-x="184" 
d="M92 134l67 -67l-67 -67l-67 67z" />
    <glyph glyph-name="colon" unicode=":" horiz-adv-x="182" 
d="M88 396l67 -67l-67 -68l-67 68zM88 134l67 -67l-67 -67l-67 67z" />
    <glyph glyph-name="comma" unicode="," horiz-adv-x="151" 
d="M124 131l-99 -180v180h99z" />
    <glyph glyph-name="semicolon" unicode=";" horiz-adv-x="160" 
d="M78 396l67 -67l-67 -68l-67 68zM138 131l-98 -180v180h98z" />
    <glyph glyph-name="quotesinglbase" unicode="&#x201a;" horiz-adv-x="120" 
d="M116 131l-99 -180v180h99z" />
    <glyph glyph-name="quotedblbase" unicode="&#x201e;" horiz-adv-x="261" 
d="M250 131l-99 -180v180h99zM116 131l-99 -180v180h99z" />
    <glyph glyph-name="quotedblright" unicode="&#x201d;" horiz-adv-x="261" 
d="M250 707l-99 -180v180h99zM116 707l-99 -180v180h99z" />
    <glyph glyph-name="quoteright" unicode="&#x2019;" horiz-adv-x="120" 
d="M116 707l-99 -180v180h99z" />
    <glyph glyph-name="quotedbl" unicode="&#x22;" horiz-adv-x="261" 
d="M146 708h84l-20 -133h-64v133zM27 708h85l-20 -133h-65v133z" />
    <glyph glyph-name="quotesingle" unicode="'" horiz-adv-x="142" 
d="M29 708h85l-20 -133h-65v133z" />
    <glyph glyph-name="quotedblleft" unicode="&#x201c;" horiz-adv-x="261" 
d="M11 527l99 180v-180h-99zM146 527l98 180v-180h-98z" />
    <glyph glyph-name="quoteleft" unicode="&#x2018;" horiz-adv-x="121" 
d="M5 527l99 180v-180h-99z" />
    <glyph glyph-name="exclam" unicode="!" horiz-adv-x="168" 
d="M80 134l67 -67l-67 -67l-67 67zM42 714h84v-516h-84v516z" />
    <glyph glyph-name="s" unicode="s" horiz-adv-x="349" 
d="M182 327l146 -47v-185l-102 -96l-212 62l60 85l155 -46v108l-40 14l-24 -77l-144 45v186l102 96l207 -62l-52 -87l-158 47v-108l37 -12z" />
    <glyph glyph-name="periodcentered" unicode="&#xb7;" horiz-adv-x="210" 
d="M101 518q18 0 33 -8.5t26.5 -23t18 -34.5t6.5 -42q0 -23 -6.5 -42.5t-18 -34t-26.5 -23t-33 -8.5t-33 8.5t-26.5 23t-18 34t-6.5 42.5q0 22 6.5 42t18 34.5t26.5 23t33 8.5z" />
    <glyph glyph-name="dieresis" unicode="&#xa8;" horiz-adv-x="268" 
d="M169 636h85l-51 -106h-65zM46 636h85l-51 -106h-65z" />
    <glyph glyph-name="adieresis" unicode="&#xe4;" horiz-adv-x="410" 
d="M131 379v-248l119 -35v257zM252 66l-41 -66l-181 59v338l113 80l209 -45v-308l58 -36l-50 -85l-85 50zM247 631h85l-51 -106h-65zM124 631h85l-51 -106h-65z" />
    <glyph glyph-name="edieresis" unicode="&#xeb;" horiz-adv-x="324" 
d="M324 406l-206 -273l164 -45l-42 -88l-221 57v303l105 111zM118 189l110 145l-110 36v-181zM201 622h85l-51 -106h-65zM78 622h85l-51 -106h-65z" />
    <glyph glyph-name="odieresis" unicode="&#xf6;" 
d="M156 472l176 -53v-331l-133 -88l-176 53v337zM231 92v254l-107 34v-254zM233 636h85l-52 -106h-64zM110 636h85l-52 -106h-64z" />
    <glyph glyph-name="udieresis" unicode="&#xfc;" horiz-adv-x="417" 
d="M228 0l-176 62v285l-62 35l49 85l111 -64v-272l112 -39v255l-62 35l49 85l111 -64v-279l58 -37l-52 -83l-90 57zM220 633h85l-51 -106h-65zM97 633h85l-51 -106h-65z" />
    <glyph glyph-name="ydieresis" unicode="&#xff;" horiz-adv-x="395" 
d="M264 50l-34 -50l-176 62v285l-62 35l49 85l111 -64v-272l112 -38v254l-62 35l49 85l111 -64v-486v-55l-124 -98l-211 50l77 83l160 -38v191zM220 636h85l-51 -106h-65zM97 636h85l-51 -106h-65z" />
    <glyph glyph-name="Adieresis" unicode="&#xc4;" horiz-adv-x="444" 
d="M139 449v-138h152v115l-300 75l67 85l331 -84v-380l62 -38l-49 -84l-111 65v147h-152v-90l62 -38l-49 -84l-112 65v318zM279 694h85l-52 -105h-64zM156 694h85l-52 -105h-64z" />
    <glyph glyph-name="n_n" unicode="&#xe5dc;" horiz-adv-x="414" 
d="M45 466l97 -61l41 66l176 -63v-284l61 -36l-48 -85l-111 64v271l-112 37v-251l62 -36l-49 -85l-111 64v279l-58 37zM34 608h335l-32 -91h-336z" />
    <glyph glyph-name="Idieresis" unicode="&#xcf;" horiz-adv-x="302" 
d="M68 593l224 -47v-144h55l-28 -98h-27v-198l-117 -106l-180 47l24 95l175 -46v208h-144l28 98h116v65l-174 36zM201 721h85l-51 -106h-65zM78 721h85l-51 -106h-65z" />
    <glyph glyph-name="Odieresis" unicode="&#xd6;" horiz-adv-x="413" 
d="M281 103v353l-148 28v-353zM125 586l258 -52v-444l-93 -90l-258 52v445zM266 709h85l-52 -105h-64zM143 709h85l-52 -105h-64z" />
    <glyph glyph-name="Udieresis" unicode="&#xdc;" horiz-adv-x="416" 
d="M268 -1l-217 73v394l-59 36l50 84l107 -64v-379l131 -45v377l-46 24l45 87l99 -51v-421l50 -26l-45 -87l-97 51zM247 708h85l-52 -105h-64zM124 708h85l-52 -105h-64z" />
    <glyph glyph-name="tilde" unicode="&#x2dc;" horiz-adv-x="500" 
d="M361 673h20q-8 -34 -23 -55q-26 -35 -69 -35q-26 0 -96 22q-27 9 -44 9q-25 0 -33 -29h-19q7 34 19 52q26 38 70 38q22 0 52 -9q13 -3 43 -13q30 -9 45 -9q16 0 25 10q5 6 10 19z" />
    <glyph glyph-name="grave" unicode="`" horiz-adv-x="271" 
d="M0 816h125l57 -162l-50 -4z" />
    <glyph glyph-name="longs_c_h" unicode="&#xf4fa;" horiz-adv-x="764" 
d="M404 349l-125 37v-254l129 -40l-60 -87l-169 50v319l127 104l126 -39v179l98 49v-246l44 52l148 -38v-603l-99 -54v580l-93 25v-257l61 -36l-49 -85l-110 64v319zM130 561v-738l-98 -59v803l92 95l167 -53l-20 -96z" />
    <glyph glyph-name="script_capital_M" unicode="&#x2133;" horiz-adv-x="780" 
d="M369 274q4 19 9.5 40.5t13.5 45.5q-14 -32 -27.5 -65t-30.5 -71q-103 -235 -206 -235q-18 0 -39 9t-39 25.5t-30 41t-12 56.5q0 31 17 47.5t40 16.5q51 0 51 -49q0 -10 -5.5 -23t-13.5 -26q-2 -4 -3 -9t-1 -9q0 -12 12.5 -19.5t22.5 -7.5q65 0 164 212q3 6 14.5 33.5
t27.5 65.5t35 82.5t36.5 84.5t32 70.5t21.5 42.5q3 7 11.5 20.5t19.5 26t23.5 22t23.5 9.5q8 0 14.5 -8.5t6.5 -13.5q0 -13 -11 -27q-17 -35 -40 -120t-49 -212q-6 -33 -11.5 -66t-10 -62t-8.5 -53t-5 -37q5 11 10.5 25t12.5 34q35 95 59 161t40 103q65 152 133 249
q2 8 13 18t21 10q21 0 21 -23q0 -6 -1.5 -11t-4.5 -13q-2 -4 -9 -29.5t-18 -69.5q-20 -84 -34 -143.5t-23 -104.5t-13.5 -81.5t-4.5 -75.5q0 -13 1.5 -33t3.5 -38.5t5.5 -31.5t8.5 -13q7 0 21 15q2 2 11 17t23 40v-2q1 10 23 49v-1q5 16 19 16q25 0 25 -25q0 -5 -2 -12
t-7 -15q-12 -29 -21.5 -50.5t-16.5 -32.5q-35 -49 -78 -49q-98 0 -98 144q0 110 52 282q-51 -117 -111 -288q-41 -116 -78 -129l-2 -1q-8 -2 -10 -2q-54 0 -54 91q0 35 7.5 80t21.5 102z" />
    <glyph glyph-name="gramm" unicode="&#xf520;" horiz-adv-x="523" 
d="M453 360q-30 0 -45 31h1q-2 2 -4.5 6t-4.5 7q-6 -2 -10 -6l-1 -1q-2 -2 -4 -2.5t-4 -1.5v-1q0 -2 -2 -2q17 -22 22.5 -42.5t5.5 -48.5q0 -38 -17.5 -69.5t-47.5 -51.5q-53 -35 -136 -35q-47 0 -63 -4q-32 -8 -32 -31q0 -29 59 -29h9l121 2q79 0 113.5 -27t34.5 -90
q0 -150 -237 -150q-190 0 -190 99q0 29 16 50t60 37q-20 7 -31 14.5t-17 17.5t-7.5 22t-1.5 27q0 34 17 59t63 37q-35 21 -51 52t-16 70q0 36 14.5 65t40.5 49q51 39 123 39q35 0 61.5 -7t52.5 -27l3 3l2.5 2.5t6.5 3.5h-1q21 20 43 29.5t41 9.5q59 0 59 -62q0 -44 -46 -44z
M231 404q-45 0 -66 -26.5t-21 -82.5q0 -55 20 -82t66 -27t66 26t20 83t-20 83t-65 26zM172 -6q-30 -8 -49 -25.5t-19 -45.5q0 -60 113 -60q157 0 157 75q0 29 -21 42.5t-69 13.5h-112z" />
    <glyph glyph-name="c_h" unicode="&#xf1bb;" horiz-adv-x="617" 
d="M252 343l-120 40v-256l124 -41l-59 -86l-170 50v319l127 104l126 -39v178l98 50v-246l45 51l160 -34v-604l-98 -53v579l-107 22v-256l62 -36l-49 -85l-111 64v319z" />
    <glyph glyph-name="f_f" unicode="&#xfb00;" horiz-adv-x="467" 
d="M300 474v133l115 97l123 -74l-51 -84l-89 54v-126h61v-99h-61v-555l-98 -56v611h-142v-555l-99 -56v611h-44v99h44v133l115 97l123 -74l-50 -84l-89 54v-126h142z" />
    <glyph glyph-name="fl" unicode="&#xfb02;" horiz-adv-x="462" 
d="M385 662v-545l70 -26l-33 -91l-136 49v492l-129 59v-126h61v-99h-61v-555l-98 -56v611h-45v99h45v133l115 97l147 -72z" />
    <glyph glyph-name="longs_i" unicode="&#xeba2;" horiz-adv-x="402" 
d="M137 561v-738l-98 -59v803l91 95l104 -37l-20 -96zM267 636h85l-51 -134h-64zM241 466l104 -66v-276l62 -36l-49 -85l-111 64v279l-58 37z" />
    <glyph glyph-name="longs_t" unicode="&#xfb05;" horiz-adv-x="436" 
d="M353 586v-112h61v-99h-61v-275l71 -26l-50 -86l-119 43v493l-125 37v-738l-98 -59v803l92 95z" />
    <glyph glyph-name="acute" unicode="&#xb4;" horiz-adv-x="167" 
d="M50 650l-50 4l57 162h125z" />
    <glyph glyph-name="longs_s" unicode="&#xf4fd;" horiz-adv-x="511" 
d="M137 561v-738l-98 -59v803l91 95l262 -88l-51 -84zM329 327l146 -47v-185l-102 -96l-212 62l60 85l155 -46v108l-40 14l-24 -77l-144 45v186l102 96l207 -62l-52 -87l-158 47v-108l37 -12z" />
    <glyph glyph-name="german_penny_sign" unicode="&#x2080;" horiz-adv-x="409" 
d="M301 322l6 33q2 16 3 32.5t1 33.5v21q0 18 -2.5 36.5t-8.5 33.5t-16 24t-25 9q-13 -2 -17.5 -9t-4.5 -19v-4q2 -42 18 -84.5t37 -87.5zM361 330q-8 -24 -13 -41.5t-11 -31.5q57 -111 57 -191q0 -44 -17 -77.5t-47 -57.5t-71 -38.5t-88 -18.5q-6 0 -12 -1t-12 -1
q-17 0 -36.5 6t-36 16t-27.5 23.5t-11 28.5q0 10 6.5 21t15.5 21t18.5 16.5t15.5 6.5q12 0 12 -24v-5q0 -26 16.5 -44.5t45.5 -18.5q9 0 21.5 1.5t25.5 5.5q51 13 78 39t27 64v6q-4 76 -29 139q-23 -33 -50 -57t-54 -40t-53 -24t-47 -8q-23 0 -41.5 11.5t-18.5 42.5
q0 17 5.5 39t16.5 52q17 37 28 66t16 49q0 1 -1 1q-2 0 -16 -11.5t-32 -31.5l-13 18q-5 6 -10.5 14.5t-7.5 10.5q93 72 135 72q33 0 33 -37q0 -33 -30 -103q-17 -50 -25 -77.5t-8 -38.5q0 -8 4 -9t9 -1q27 0 64 31t71 88q-103 161 -103 245q0 13 3 25q10 41 32 65.5t54 24.5
h10q35 0 58 -11.5t36.5 -31t19 -44.5t5.5 -52v-7q0 -30 -5 -58.5t-13 -56.5z" />
    <glyph glyph-name="c_k" unicode="&#xeec4;" horiz-adv-x="578" 
d="M458 355l-71 35v-261l124 -45l-54 -84l-169 61v338l-39 -56l-121 40v-256l125 -41l-60 -86l-169 50v319l127 104l137 -43v187l99 45v-248l54 58l88 -43l-53 -113h81l-42 -99h-123z" />
    <glyph glyph-name="fi" unicode="&#xfb01;" horiz-adv-x="457" 
d="M298 474l103 -67v-283l64 -36l-49 -85l-111 64v286l-36 22h-112v-555l-99 -56v611h-44v99h44v133l115 97l133 -71l-27 -99l-122 66v-126h141v-2v2zM344 636h85l-50 -134h-64z" />
    <glyph glyph-name="f_t" unicode="&#xeecb;" horiz-adv-x="464" 
d="M285 375h-128v-555l-98 -56v611h-45v99h45v133l115 97l157 -70l-58 -74l-116 40v-126h128v67l98 45v-112h61v-99h-61v-275l71 -26l-50 -86l-119 43v344z" />
    <glyph glyph-name="longs_longs" unicode="&#xeba6;" horiz-adv-x="425" 
d="M348 561v-738l-98 -59v758l-119 39v-738l-98 -59v803l92 95l164 -55l53 55l106 -44l-19 -96z" />
    <glyph glyph-name="t_z" unicode="&#xeedc;" horiz-adv-x="417" 
d="M124 586v-160h249l-117 -208l130 -51v-294l-126 -109l-204 70l31 93l198 -68v243l-111 45l94 180h-144v-227l70 -26l-49 -86l-120 43v510z" />
    <glyph glyph-name="yacute" unicode="&#xfd;" horiz-adv-x="398" 
d="M264 50l-34 -50l-176 62v285l-62 35l49 85l111 -64v-272l112 -38v254l-62 35l49 85l111 -64v-486v-55l-124 -98l-211 50l77 83l160 -38v191zM177 558l-50 4l57 162h125z" />
    <glyph glyph-name="uni0025" unicode="%" horiz-adv-x="571" 
d="M444 107v91l-54 9v-90zM382 310l164 -34v-181l-93 -90l-164 33v182zM423 699l78 31l-352 -719l-79 -31zM181 506v91l-54 9v-90zM119 708l164 -33v-181l-94 -90l-164 33v182z" />
    <glyph glyph-name="Euro" unicode="&#x20ac;" horiz-adv-x="504" 
d="M193 248q4 -44 13.5 -81.5t25 -64.5t38.5 -42.5t53 -15.5q27 0 46.5 10.5t33 27.5t22.5 38.5t15 43.5q5 13 9 17t9 4q4 0 6 -1l-1 1q19 -4 22 -11t3 -13q-1 -11 -2.5 -30.5t-3 -40.5t-2.5 -39.5t-1 -25.5q0 -17 -4.5 -21t-16.5 -4q-17 0 -21 12t-11 27l-1 -1
q-5 -5 -15 -14t-24 -17.5t-32 -15t-39 -6.5q-54 0 -93 22t-66.5 59t-43.5 84.5t-23 97.5h-57q-17 0 -17 11v5.5t2 7.5l7 19q3 8 7.5 10t10.5 2h42q-1 11 -1 24.5v24.5v10h-47q-18 0 -18 10q0 5 2 9h-2q8 22 13 28.5t14 6.5h45q7 48 25 96t46 86t66.5 62t87.5 24
q20 0 36.5 -5t29 -13t23 -17t18.5 -18q7 22 11 27.5t18 5.5t17 -4t3 -21q0 -7 1 -25.5t2.5 -40.5t3 -42.5t2.5 -30.5v1q1 -3 1 -8q0 -8 -12.5 -13.5t-19.5 -5.5q-5 0 -7 3.5t-5 11.5l-18 50t-22.5 45t-33.5 32.5t-49 12.5q-30 0 -52 -17.5t-37 -46.5t-24 -68t-12 -81h228
q17 0 17 -14q0 -3 -1 -5l-9 -23q-3 -8 -8 -10t-14 -2h-215v-25q0 -15 1 -19.5t1 -14.5h192q10 0 14 -5t4 -11q0 -1 -0.5 -1.5t-0.5 -2.5l-9 -23q-3 -8 -8 -10t-14 -2h-174z" />
    <glyph glyph-name="ellipsis" unicode="&#x2026;" horiz-adv-x="595" 
d="M83 134l66 -67l-66 -67l-68 67zM301 134l67 -67l-67 -67l-67 67zM513 134l67 -67l-67 -67l-67 67z" />
    <glyph glyph-name="circumflex" unicode="&#x2c6;" horiz-adv-x="833" 
d="M-100 599l100 101l100 -101v-43l-100 44l-100 -44v43z" />
    <glyph glyph-name="degree" unicode="&#xb0;" horiz-adv-x="287" 
d="M170 506v91l-54 9v-90zM108 708l164 -33v-181l-93 -90l-164 33v182z" />
    <glyph glyph-name="Aring" unicode="&#xc5;" horiz-adv-x="443" 
d="M139 449v-138h152v115l-300 75l67 85l331 -84v-380l63 -38l-50 -84l-111 65v147h-152v-90l63 -38l-50 -84l-111 65v318zM243 637v66l-35 6v-65zM203 784l105 -24v-132l-60 -66l-105 24v133z" />
    <glyph glyph-name="m_m" unicode="&#xe5d2;" horiz-adv-x="625" 
d="M185 471l172 -62l36 62l176 -63v-284l62 -36l-49 -85l-111 64v271l-110 38v-252l62 -36l-48 -85l-112 64v271l-112 39v-253l62 -36l-48 -85l-112 64v279l-58 37l53 83l98 -63zM41 608h536l-31 -91h-537z" />
    <glyph glyph-name="hyphen" unicode="-" horiz-adv-x="266" 
d="M62 317l157 42l-26 -88l-156 -42zM71 446l156 42l-26 -88l-156 -42z" />
    <glyph glyph-name="f_f_l" unicode="&#xfb04;" horiz-adv-x="720" 
d="M398 600v-126h61v-99h-61v-555l-98 -56v611h-142v-555l-99 -56v611h-44v99h44v133l115 97l123 -74l-50 -84l-89 54v-126h142v133l115 97l147 -72l64 30v-545l70 -26l-33 -91l-136 49v492z" />
    <glyph glyph-name="aring" unicode="&#xe5;" horiz-adv-x="395" 
d="M193 702q19 0 36 -7.5t29.5 -21t19.5 -31.5t7 -39t-7 -39.5t-19.5 -32t-29.5 -21t-36 -7.5q-39 0 -66 29t-27 71q0 21 7 39t20 31.5t29.5 21t36.5 7.5zM181 680h-3q-8 0 -13 -13.5t-5 -34.5q0 -22 4 -42.5t10 -36t14 -24.5t16 -9t13.5 13t5.5 34t-4 40.5t-10 35.5
t-13.5 25.5t-14.5 11.5zM131 379v-248l119 -35v257zM252 66l-41 -66l-181 59v338l113 80l209 -45v-308l58 -36l-50 -85l-85 50z" />
    <glyph glyph-name="f_f_t" unicode="&#xeece;" horiz-adv-x="708" 
d="M526 474v67l98 45v-112h61v-99h-61v-275l71 -26l-50 -86l-119 43v344h-128v-555l-98 -56v611h-142v-555l-99 -56v611h-44v99h44v133l115 97l123 -74l-50 -84l-89 54v-126h142v133l115 97l157 -70l-58 -74l-116 40v-126h128z" />
    <glyph glyph-name="t_t" unicode="&#xeed9;" horiz-adv-x="448" 
d="M127 586v-112h140v67l98 45v-112h61v-99h-61v-275l70 -26l-49 -86l-119 43v344h-140v-275l70 -26l-49 -86l-119 43v510z" />
    <glyph glyph-name="longs_longs_t" unicode="&#xf4ff;" horiz-adv-x="638" 
d="M250 -236v758l-119 39v-738l-98 -59v803l92 95l164 -55l53 55l221 -76v-112h61v-99h-61v-275l71 -26l-50 -86l-119 43v493l-117 37v-738z" />
    <glyph glyph-name="l_l" unicode="&#xf4f9;" horiz-adv-x="413" 
d="M125 662v-545l108 -31v531l98 45v-545l70 -26l-33 -91l-135 49l-46 -46l-160 46v568z" />
    <glyph glyph-name="square_kg" unicode="&#x338f;" horiz-adv-x="1026" 
d="M1000 401q0 -44 -45 -44q-32 0 -45 31h1q-6 6 -10 14q-1 -1 -5 -4.5t-15 -11.5q17 -22 23 -42t6 -48q0 -37 -15 -66t-42 -48.5t-64.5 -30t-81.5 -10.5q-57 0 -76 -8.5t-19 -26.5q0 -30 59 -30h9q27 0 59.5 0.5t61.5 2.5q79 0 113.5 -27.5t34.5 -90.5q0 -150 -237 -150
q-191 0 -191 99q0 29 17 50t61 37q-20 7 -31.5 14.5t-17 17.5t-7 22t-1.5 28q0 33 17.5 57.5t62.5 37.5q-38 23 -52.5 53t-14.5 69q0 35 14 63.5t38 48.5t56.5 30.5t68.5 10.5q34 0 61.5 -8t53.5 -26l3 3l2.5 2.5t5.5 3.5h-1q44 41 84 41q59 0 59 -64zM817 293
q0 57 -20 82.5t-65 25.5t-65.5 -26.5t-20.5 -81.5t19.5 -82t65.5 -27t66 26t20 83zM875 -64q0 29 -21 42t-68 13h-113q-30 -8 -49 -25.5t-19 -45.5q0 -60 113 -60q157 0 157 76zM290 3v50l31 1q10 1 15.5 1.5t8 1.5t3 2.5l1.5 4.5q-2 4 -6 8.5t-4 9.5q-27 38 -50.5 73.5
t-51.5 74.5l-12 -13q-9 -9 -17 -17.5t-18 -16.5v-98q0 -17 5 -23.5t20 -7.5h18q5 0 13 -0.5t13 -0.5v-50h-231v50l46 1q14 1 19.5 7.5t5.5 23.5v539q0 20 -9.5 27t-34.5 7h-5q-2 0 -3.5 -0.5t-3.5 -0.5h-20v47l167 11v-461q16 15 30 29l30 30q9 9 22 20.5t25 23.5t20 22.5
t8 17.5q0 2 -8 5.5t-29 3.5h-36v47h238l-1 -47q-70 0 -143 -74l-42 -40q35 -49 69 -97t66 -97q14 -20 37.5 -31.5t51.5 -13.5v-50h-238z" />
    <glyph glyph-name="AE" unicode="&#xc6;" horiz-adv-x="589" 
d="M391 604v-172h162l-35 -98h-125v-202l171 -42l-22 -94l-245 59v279h-155v-212l62 -38l-49 -84l-112 65v440l99 66v-138h151v115l-299 76l67 84l251 -63l87 59l180 -67l-28 -94z" />
    <glyph glyph-name="ae" unicode="&#xe6;" horiz-adv-x="542" 
d="M553 406l-206 -273l164 -45l-42 -88l-221 57v6l-40 -63l-181 59v338l113 80l182 -39l31 33zM128 379v-248l120 -35v258zM457 334l-108 35v-180z" />
    <glyph glyph-name="thorn" unicode="&#xfe;" horiz-adv-x="425" 
d="M214 471l177 -63v-324l-111 -84l-99 26v-204l-98 -58v288l-56 15l56 70v407l-70 26l33 92l136 -50v-188zM292 98v240l-110 38v-249z" />
    <glyph glyph-name="Thorn" unicode="&#xde;" horiz-adv-x="449" 
d="M76 23v21l-54 9l54 82v289l-45 8l45 75v61l-70 26l34 92l135 -50v-130l224 -45v-350l-105 -109l-119 26v-201l-99 -63v259v0zM176 128l125 -27v277l-125 29v-279z" />
    <glyph glyph-name="oe" unicode="&#x153;" horiz-adv-x="542" 
d="M167 472l143 -43l40 42l200 -65l-206 -273l164 -45l-42 -88l-185 48l-71 -48l-176 53v337zM242 92v254l-107 34v-254zM344 189l110 145l-110 36v-181z" />
    <glyph glyph-name="slash" unicode="/" horiz-adv-x="372" 
d="M325 699l78 31l-352 -719l-79 -31z" />
    <glyph glyph-name="Oslash" unicode="&#xd8;" horiz-adv-x="458" 
d="M148 708l206 -41l12 25l79 32l-39 -79v-555l-93 -90l-203 41l-18 -36l-78 -31l41 84v561zM308 578l-151 28v-345l151 313v4zM305 103v340l-151 -312z" />
    <glyph glyph-name="oslash" unicode="&#xf8;" horiz-adv-x="356" 
d="M158 472l75 -23l8 18l79 32l-29 -67l43 -13v-331l-132 -88l-85 25l-6 -14l-79 -31l27 63l-33 10v337zM234 92v211l-78 -187zM126 195l69 164l-69 21v-185z" />
    <glyph glyph-name="bullet" unicode="&#x2022;" horiz-adv-x="274" 
d="M137 463l127 -67l-127 -67l-127 67z" />
    <glyph glyph-name="Scaron" unicode="&#x160;" horiz-adv-x="382" 
d="M136 493v-178l26 -5l85 99l101 -26v-311l-102 -72l-232 80l28 94l213 -74v207l-44 10l-86 -100l-83 21v283l103 72l223 -73l-28 -94zM294 701l-100 -101l-100 101v43l100 -44l100 44v-43z" />
    <glyph glyph-name="OE" unicode="&#x152;" horiz-adv-x="566" 
d="M110 708l206 -41l56 37l180 -67l-28 -94l-157 60v-136h159l-36 -98h-124v-237l171 -42l-23 -94l-196 47l-44 -43l-257 52v567zM266 103v266h-79l35 98h44v112l-148 27v-475z" />
    <glyph glyph-name="perthousand" unicode="&#x2030;" horiz-adv-x="832" 
d="M720 107v91l-54 9v-90zM657 310l164 -34v-181l-93 -90l-164 33v182zM412 699l79 31l-353 -719l-78 -31zM170 506v91l-54 9v-90zM108 708l164 -33v-181l-93 -90l-164 33v182zM434 107v91l-55 9v-90zM371 310l164 -34v-181l-93 -90l-164 33v182z" />
    <glyph glyph-name="backslash" unicode="\" horiz-adv-x="356" 
d="M106 700l243 -644l-99 -46l-242 645z" />
    <glyph glyph-name="section" unicode="&#xa7;" horiz-adv-x="384" 
d="M31 393l72 51l-72 20v153l103 84l220 -44v-102l-74 -59l74 -21v-152l-73 -59l74 -21v-148l-120 -84l-204 45v105l72 51l-72 20v161zM256 271v129l-127 37v-130zM256 503v73l-127 26v-63zM130 205v-71l126 -28v62z" />
    <glyph glyph-name="florin" unicode="&#x192;" horiz-adv-x="225" 
d="M59 -139v514h-46v99h45v133l115 97l123 -74l-50 -84l-90 54v-126h61v-99h-60v-521l-92 -94l-107 44l20 95z" />
    <glyph glyph-name="guilsinglleft" unicode="&#x2039;" horiz-adv-x="335" 
d="M321 424l-213 -166l208 -163l-63 -75l-247 193l297 233z" />
    <glyph glyph-name="guilsinglright" unicode="&#x203a;" horiz-adv-x="335" 
d="M14 34l213 166l-207 163l62 75l248 -193l-297 -233z" />
    <glyph glyph-name="guillemotleft" unicode="&#xab;" horiz-adv-x="567" 
d="M551 408l-213 -166l208 -163l-63 -75l-247 194l297 232zM325 409l-213 -166l208 -163l-63 -75l-247 194l297 232z" />
    <glyph glyph-name="guillemotright" unicode="&#xbb;" horiz-adv-x="611" 
d="M286 26l213 166l-208 163l63 75l247 -194l-297 -232zM15 34l213 166l-207 163l62 75l248 -194l-297 -232z" />
    <glyph glyph-name="trademark" unicode="&#x2122;" horiz-adv-x="620" 
d="M134 628v-273q21 -5 44 -11.5t43 -11.5l-18 -73l-115 32l1 -1q-5 2 -13.5 3.5t-13.5 3.5v298l37 33h-84l12 76h208l-12 -76h-89zM267 704l51 -28q3 8 5.5 16t4.5 13l102 -39q3 9 7 20t7 19l125 -50v-300q8 -5 18 -11.5t17 -11.5l-36 -65l-53 34q-3 2 -9 5.5t-9 5.5v292
q-11 3 -21.5 7t-20.5 8v-80h36l-18 -77h-18v-108q8 -5 17.5 -11t16.5 -11l-36 -65l-54 34q-2 2 -8 5.5t-9 5.5v150h-42l17 77h25v64q-14 5 -23 8.5t-23 9.5v-271q7 -4 14.5 -8.5t13.5 -7.5l-32 -67l-49 26l-19 12v314q-15 10 -31 17z" />
    <glyph glyph-name="equal" unicode="=" horiz-adv-x="372" 
d="M56 338h300l-41 -110h-299zM56 546h300l-41 -110h-299z" />
    <glyph glyph-name="plus" unicode="+" horiz-adv-x="389" 
d="M81 465h59v50l113 101v-151h128l-73 -103h-53v-46l-113 -101v147h-134z" />
    <glyph glyph-name="plusminus" unicode="&#xb1;" horiz-adv-x="395" 
d="M83 465h60v50l112 101v-151h128l-73 -103h-53v-46l-112 -101v147h-135zM62 187h299l-40 -110h-300z" />
    <glyph glyph-name="less" unicode="&#x3c;" horiz-adv-x="335" 
d="M321 554l-213 -166l208 -163l-63 -76l-247 194l297 233z" />
    <glyph glyph-name="greater" unicode="&#x3e;" horiz-adv-x="335" 
d="M14 163l213 166l-207 163l62 75l248 -194l-297 -232z" />
    <glyph glyph-name="asterisk" unicode="*" horiz-adv-x="413" 
d="M198 707l55 -54l-30 -106l76 80l74 -20l-19 -74l-107 -27l107 -27l20 -74l-74 -19l-76 78l30 -106l-54 -54l-54 54l30 106l-77 -80l-74 20l20 75l106 26l-107 26l-20 74l75 20l75 -78l-30 106z" />
    <glyph glyph-name="underscore" unicode="_" horiz-adv-x="488" 
d="M52 -126h420l-35 -77h-421z" />
    <glyph glyph-name="asciicircum" unicode="^" horiz-adv-x="447" 
d="M9 355l235 283l192 -260l-76 -58l-161 218l-168 -202z" />
    <glyph glyph-name="braceleft" unicode="{" horiz-adv-x="255" 
d="M208 731v-286l-97 -82l97 -75v-294l70 -26l-33 -92l-135 49v385l-102 80l102 97v250l92 95l107 -44l-20 -96z" />
    <glyph glyph-name="braceright" unicode="}" horiz-adv-x="262" 
d="M53 -23v355l98 82l-97 75v225l-71 26l34 92l135 -49v-316l102 -80l-102 -97v-319l-92 -95l-107 44l20 96z" />
    <glyph glyph-name="parenleft" unicode="(" horiz-adv-x="175" 
d="M129 731v-737l70 -26l-33 -92l-136 49v812l93 95l106 -44l-20 -96z" />
    <glyph glyph-name="parenright" unicode=")" horiz-adv-x="164" 
d="M33 -23v737l-70 26l34 92l135 -49v-812l-92 -95l-107 44l20 96z" />
    <glyph glyph-name="bracketleft" unicode="[" horiz-adv-x="168" 
d="M146 -91h-114v784l72 102h107l-42 -96h-39v-700h56z" />
    <glyph glyph-name="bracketright" unicode="]" horiz-adv-x="181" 
d="M26 797h115v-784l-73 -102h-107l42 96h39v701h-55z" />
    <glyph glyph-name="space" unicode=" " horiz-adv-x="283" 
 />
    <glyph glyph-name="eight" unicode="8" horiz-adv-x="375" 
d="M250 420v156l-127 26v-146zM348 393v-298l-120 -84l-204 45v254l72 51l-72 21v235l104 84l220 -44v-185l-74 -58zM123 354v-220l127 -28v212z" />
    <glyph glyph-name="nine" unicode="9" horiz-adv-x="366" 
d="M73 140l169 -33v237l-53 -58l-164 28v307l106 87l207 -48v-567l-97 -86l-216 48zM240 372v211l-115 26v-213z" />
    <glyph glyph-name="six" unicode="6" horiz-adv-x="374" 
d="M293 577l-168 32v-237l52 59l164 -29v-307l-106 -87l-207 48v567l97 85l216 -46zM126 344v-210l116 -27v213z" />
    <glyph glyph-name="four" unicode="4" horiz-adv-x="351" 
d="M276 708v-457h55v-98h-55v-108l-98 -45v153h-170l153 555h115zM70 251h91v393z" />
    <glyph glyph-name="seven" unicode="7" horiz-adv-x="326" 
d="M47 708h269l-49 -237h36l-19 -98h-37l-69 -330l-129 -52l129 382h-152l25 99h160l47 138h-246z" />
    <glyph glyph-name="five" unicode="5" horiz-adv-x="349" 
d="M33 610l1 98h265l-52 -98h-180v-152l92 42l158 -80v-322l-127 -98l-176 36l55 89l150 -31v266l-62 31l-124 -56v275z" />
    <glyph glyph-name="zero" unicode="0" horiz-adv-x="401" 
d="M276 103v475l-148 28v-475zM120 708l257 -52v-566l-93 -90l-258 52v567z" />
    <glyph glyph-name="two" unicode="2" horiz-adv-x="386" 
d="M135 95h232l-69 -98h-285l244 316v270l-125 23v-144l-99 25v132l91 89l233 -47v-278z" />
    <glyph glyph-name="three" unicode="3" 
d="M89 711h144l101 -102l-140 -186l132 -28v-308l-111 -87l-203 39l67 84l151 -26v218l-136 28l157 211l-58 58h-166z" />
    <glyph glyph-name="one" unicode="1" horiz-adv-x="236" 
d="M205 727v-632l-99 -95v571l-101 -52v42z" />
    <glyph glyph-name="multiply" unicode="&#xd7;" horiz-adv-x="354" 
d="M49 307l85 79l-81 85l43 41l81 -85l85 81l41 -43l-86 -81l80 -85l-43 -41l-80 85l-84 -79z" />
    <glyph glyph-name="eth" unicode="&#xf0;" 
d="M-20 500l66 61l-65 67l71 68l64 -68l77 73l41 -43l-77 -73l182 -190v-305l-119 -90l-181 45v373l98 48v-344l111 -28v260l-161 165l-66 -62z" />
    <glyph glyph-name="bar" unicode="|" horiz-adv-x="132" 
d="M115 704v-648l-98 -46v649z" />
    <glyph glyph-name="brokenbar" unicode="&#xa6;" horiz-adv-x="132" 
d="M115 312v-263l-99 -45v264zM116 704v-263l-99 -45v263z" />
    <glyph glyph-name="Ydieresis" unicode="&#x178;" horiz-adv-x="411" 
d="M272 588l110 -61v-613l-116 -96l-216 43l143 143l-151 32v441l-56 27l45 87l107 -54v-424l145 -34v390l-58 33zM283 -84v148l-123 -125zM237 722h85l-51 -106h-65zM114 722h85l-51 -106h-65z" />
    <glyph glyph-name="numero_sign" unicode="&#x2116;" horiz-adv-x="883" 
d="M70 701h88h23l131 -339v339h88v-699l-2 -60l-240 573v-513h-88v699zM445 105h395v-103h-395v103zM647 701q106 0 149.5 -90t43.5 -207q0 -116 -43.5 -192.5t-149.5 -76.5t-154 83.5t-48 199.5q0 118 48 200.5t154 82.5zM650 607q-65 0 -85.5 -54.5t-20.5 -133.5
q0 -76 20.5 -131.5t85.5 -55.5q64 0 81 48t17 125q0 78 -17 140t-81 62z" />
    <glyph glyph-name="endash" unicode="&#x2013;" horiz-adv-x="371" 
d="M56 469h299l-40 -111h-300z" />
    <glyph glyph-name="emdash" unicode="&#x2014;" horiz-adv-x="504" 
d="M56 471h432l-40 -113h-432z" />
    <glyph glyph-name="ordfeminine" unicode="&#xaa;" horiz-adv-x="412" 
d="M121 606v-248l119 -35v258zM242 294l-41 -66l-181 59v338l112 79l209 -44v-309l59 -36l-50 -85l-85 51zM15 85h300l36 90h-300z" />
    <glyph glyph-name="ordmasculine" unicode="&#xba;" horiz-adv-x="342" 
d="M150 706l177 -53v-331l-133 -88l-176 53v337zM226 326v254l-107 34v-254zM15 85h274l31 86h-274z" />
    <glyph glyph-name="onesuperior" unicode="&#xb9;" horiz-adv-x="176" 
d="M160 703v-400l-98 -95v326q-15 -8 -30.5 -15.5t-23.5 -12.5v70z" />
    <glyph glyph-name="onequarter" unicode="&#xbc;" horiz-adv-x="516" 
d="M396 699l79 31l-353 -719l-79 -31zM472 169h29v-97h-29v-51l-97 -45v96h-100l95 346h102v-249zM347 169h28v90zM165 700v-400l-98 -95v326q-6 -3 -14 -8.5t-15.5 -10.5t-13.5 -8.5t-9 -3.5q-2 0 -2 3v69z" />
    <glyph glyph-name="onehalf" unicode="&#xbd;" horiz-adv-x="601" 
d="M465 103h123l-67 -98h-212l156 202v120q-5 2 -9 2.5t-15 2.5q-1 -20 -1 -43.5v-37.5l-98 25v99l65 63l156 -32v-177zM166 700v-400l-98 -95v326q-6 -3 -14 -8.5t-15.5 -10.5t-13.5 -8.5t-9 -3.5q-2 0 -2 3v69zM397 699l79 31l-353 -719l-79 -31z" />
    <glyph glyph-name="threequarters" unicode="&#xbe;" horiz-adv-x="622" 
d="M578 186h29v-98h-29v-51l-98 -45v96h-99l95 346h102v-248zM457 186h23v101zM82 706h99l75 -76l-67 -89q8 -2 24.5 -5t31.5 -6l1 -197l-78 -60l-156 30l67 84l69 -12q0 18 -0.5 35t-0.5 40q-9 2 -17.5 4t-18.5 4l-53 11l95 127l-11 11h-122zM482 698l79 31l-353 -718
l-78 -32z" />
    <glyph glyph-name="question" unicode="?" horiz-adv-x="393" 
d="M21 539v67l109 102l236 -38v-222l-98 -100l-21 -19v-124l-99 -57v139l120 106v195l-149 27v-76h-98zM191 134l67 -67l-67 -67l-67 67z" />
    <glyph glyph-name="questiondown" unicode="&#xbf;" horiz-adv-x="367" 
d="M357 -49v-68l-110 -102l-236 39v222l98 99l21 19v125l99 57v-139l-120 -106v-196l149 -27v77h99zM186 355l-67 67l67 67l67 -67z" />
    <glyph glyph-name="exclamdown" unicode="&#xa1;" horiz-adv-x="186" 
d="M100 340l-67 67l67 68l67 -68zM139 272h-83v-516h83v516z" />
    <glyph glyph-name="roundr" unicode="&#xa75b;" horiz-adv-x="239" 
d="M44 466l192 -130l-88 -212l62 -36l-49 -85l-135 82l95 211l-129 87z" />
    <glyph glyph-name="at" unicode="@" horiz-adv-x="608" 
d="M578 72q11 0 16.5 -3.5t1.5 -8.5q-29 -86 -110 -143q-76 -55 -179 -55q-129 0 -208 81q-83 83 -83 205q0 85 42 160q19 35 49 63.5t67 49.5q35 20 75 31t81 11q123 0 182 -68q60 -69 60 -156q0 -80 -48 -155q-49 -75 -143 -75q-66 0 -67 51q-54 -51 -98 -51q-36 0 -56 26
q-20 24 -20 56q0 38 16.5 76.5t48.5 76.5q31 36 63 56t63 20q30 0 48 -13q8 4 14 4l49 7q11 1 17 -3t3 -9l-36 -125q-29 -96 -29 -116q0 -14 5 -14q36 0 75 57q19 29 29 62.5t10 74.5q0 90 -53 135q-57 48 -131 48q-76 0 -137 -46q-54 -41 -85 -113q-27 -65 -27 -129
q0 -111 63 -174q66 -66 163 -66q86 0 146 48q55 45 87 119q5 5 18 5h18zM355 250q0 36 -21 36q-17 0 -40.5 -29t-44.5 -77q-10 -23 -15.5 -44t-5.5 -35t4.5 -24.5t12.5 -10.5q19 0 51 35q14 17 26 37t19 43q8 21 11 38.5t3 30.5z" />
    <glyph glyph-name="uni00AD" unicode="&#xad;" horiz-adv-x="408" 
d="M57 415h293v-59h-293v59z" />
    <glyph glyph-name="mu" unicode="&#xb5;" horiz-adv-x="407" 
d="M153 400v-269l110 -39v255l-61 35l48 85l111 -64v-279l58 -37l-52 -83l-89 57l-49 -61l-76 27v-187l-84 -76l-79 61l65 59v178h-1v285l-62 35l49 85z" />
    <glyph glyph-name="divide" unicode="&#xf7;" horiz-adv-x="156" 
d="M78 396l67 -67l-67 -68l-67 68zM78 134l67 -67l-67 -67l-67 67z" />
    <glyph glyph-name="paragraph" unicode="&#xb6;" horiz-adv-x="677" 
d="M284 673h6h7q5 0 8 4t3 9q-2 24 -2 31q-2 11 8 20q9 7 21 5q29 -7 54 0q12 2 21 -5q9 -8 9 -20q-2 -17 -3 -30q-1 -5 3 -9t9 -4h8.5h9.5q4 0 8 4q3 3 3 9q-1 8 -1.5 15.5t-0.5 14.5q-1 12 8 20q8 7 21 5q29 -7 55 0q11 2 21 -5q8 -8 8 -20q-2 -15 -3 -35q-1 -12 10 -13
q27 -2 46 -5q20 -4 20 -24v-1q0 -12 -9 -19q-10 -7 -20 -4q-17 3 -38 6q-5 0 -9 -3q-4 -4 -4 -9q-6 -102 -10.5 -238.5t-9.5 -247.5q0 -5 4 -9q3 -3 9 -3q54 3 78 9q11 2 21 -4q8 -8 8 -19v-7q0 -20 -19 -24q-27 -5 -93 -8q-11 0 -11 -12q-1 -21 -2 -38.5t-2 -31.5
q-1 -22 -23 -22q-23 0 -24 22q-2 21 -3 68q-1 12 -13 11h-35.5h-34.5q-12 0 -12 -12q-2 -20 -2.5 -37t-1.5 -30q-1 -22 -23 -22q-24 0 -24 22q-2 25 -3 67q-1 12 -12 12h-21.5h-17.5q-147 0 -189.5 87.5t-42.5 214.5q0 128 42.5 221.5t189.5 93.5zM450 627h-14h-12
q-12 -1 -12 -11q-6 -104 -11 -243.5t-9 -251.5q0 -5 3 -9q4 -4 9 -4h30.5t34.5 1q5 0 8 4q4 3 4 8q-5 112 -9.5 251.5t-9.5 243.5q-1 10 -12 11zM297 619q-42 -15 -54.5 -71t-10.5 -183q0 -142 17.5 -193.5t68.5 -60.5q5 -1 9 3q5 3 4 10q-4 109 -8.5 245t-9.5 239q0 5 -5 9
q-5 3 -11 2z" />
    <glyph glyph-name="copyright" unicode="&#xa9;" horiz-adv-x="819" 
d="M403 650q-59 0 -109.5 -21.5t-93.5 -63.5q-42 -43 -63.5 -93.5t-21.5 -109.5t21.5 -109.5t63.5 -93.5q42 -42 93 -63t110 -21q60 0 110.5 21t92.5 63q43 43 64 93.5t21 109.5t-21 109.5t-64 93.5t-93.5 64t-109.5 21zM403 725q75 0 139 -27t117 -80t79.5 -117t26.5 -139
q0 -74 -26.5 -138t-79.5 -117t-117 -80t-139 -27q-74 0 -138 27t-118 80q-53 53 -79 117t-26 138q0 75 26 139t79 117q54 53 118 80t138 27zM227 256q27 -45 73.5 -72.5t103.5 -27.5q42 0 79.5 16t65.5 44t44 65.5t16 80.5t-16 80.5t-44 65.5t-65.5 44t-79.5 16
q-59 0 -107 -30t-74 -78l70 -32q17 29 46.5 47t65.5 18q27 0 50 -10t40.5 -27.5t27.5 -40.5t10 -50t-10 -50t-27.5 -40t-40.5 -27t-50 -10q-34 0 -62 15.5t-45 41.5z" />
    <glyph glyph-name="registered" unicode="&#xae;" horiz-adv-x="537" 
d="M259 681q-34 0 -63.5 -12.5t-54.5 -37.5t-37.5 -54.5t-12.5 -63.5q0 -35 12.5 -64.5t37.5 -54.5q24 -24 54 -36.5t64 -12.5q35 0 65 12.5t54 36.5q25 25 37.5 54.5t12.5 64.5q0 34 -12.5 63.5t-37.5 54.5q-25 26 -54.5 38t-64.5 12zM243 597h-10v-59h10q22 0 33.5 7.5
t11.5 22.5t-11 22t-34 7zM254 636q50 0 75 -16.5t25 -51.5q0 -25 -15 -41t-43 -21q12 -6 22 -17t18 -28l32 -64h-65l-31 61q-11 23 -19 32.5t-17 9.5h-3v-103h-61v239h82zM259 725q44 0 81.5 -15.5t68.5 -46.5q31 -32 46.5 -69t15.5 -81t-15.5 -81t-46.5 -68t-68.5 -47
t-81.5 -16q-43 0 -80.5 16t-68.5 47t-46.5 68t-15.5 81t15.5 81t46.5 69q31 31 68.5 46.5t80.5 15.5z" />
    <glyph glyph-name="dagger" unicode="&#x2020;" horiz-adv-x="224" 
d="M11 474h44v133l102 82v-215h58v-99h-61v-555l-99 -56v611h-44v99z" />
    <glyph glyph-name="daggerdbl" unicode="&#x2021;" horiz-adv-x="225" 
d="M215 -52h-61v-128l-98 -56v184h-44v99h44v328h-45v99h45v133l101 82v-215h58v-99h-61v-328h61v-99z" />
    <glyph glyph-name="logicalnot" unicode="&#xac;" horiz-adv-x="408" 
d="M57 415h294v-134h-50v75h-244v59z" />
    <glyph glyph-name="currency" unicode="&#xa4;" horiz-adv-x="744" 
d="M504 824h3q3 -7 11 -20.5t16 -29t14 -30t6 -24.5q0 -8 -1.5 -15t-1.5 -15q0 -17 8 -34t8 -32q0 -20 -15 -33q0 -3 5 -3t5 -2h-14q-5 -2 -9 -6l43 -16q0 -1 0.5 -1t0.5 -1h-2q-2 0 -4 2l-2 -2q-1 0 -1.5 2t-2.5 2q-1 0 -2 -1l-8 3q-6 0 -13 4t-13 4t-10 -3l-2 -2
q-1 -1 -1 -2t1 -1l14 -8l-7 2q-3 2 -5.5 2.5t-4.5 2.5q-2 -1 -6.5 -2t-8.5 -3.5t-7 -8t-3 -15.5q0 -23 11 -47.5t15 -49.5q7 -28 4.5 -55.5t4.5 -53.5q1 0 9.5 14.5t19 32t20 33t12.5 18.5q10 19 21.5 37t19.5 39l3 6q2 18 11 37t9 49q0 17 -4 32.5t-9.5 30.5t-9.5 30t-4 30
q0 14 4.5 25t20.5 25h2l8 2l25 -6q12 -8 21.5 -24.5t15.5 -36t9 -40t3 -37.5q0 -96 -77 -206q0 -1 -3 -2q-21 -33 -37.5 -56t-28 -40.5t-17.5 -32t-6 -29.5q1 -1 3 -1q11 0 29 6.5t31 6.5q20 0 31 -11l16 -20q8 -15 14.5 -33.5t6.5 -36.5q0 -24 -19 -40.5t-43.5 -27
t-47.5 -16t-30 -7.5q-17 -1 -36 -5.5t-30 -6.5q-3 -6 -2.5 -13.5t-10.5 -9.5l-5 1q-8 -8 -27 -8q-5 0 -7.5 1.5t-4.5 1.5q-1 0 -1.5 -0.5t-1.5 -0.5l-15 8l-5 10h-17l-7 -18q-6 -2 -7 -2q-2 0 -12 2l-2 -7q-2 -2 -4 -2t-3 -1l-2 -1l-14 10l-1 -2l-1 2q-2 -1 -4 -3
q-1 -1 -1 -3h-2q-12 7 -12 27q-6 3 -14 2.5t-15 1.5l-22 3q-6 0 -16.5 1.5t-20 4t-17.5 5t-10 4.5q-45 11 -67 20t-36 9h-23l-7 2l-29 -5q13 -14 15 -30q0 -6 -4 -13l-20 -9l-3 -5l-9 -9l-12 -2l-3 3l-19 8q-3 0 -3 -6v-2q0 -1 1 -1l23 -11l2 -6q0 -1 -2 -7l-5 -5q1 0 -7 -2
h-5l-9 4l-10 11l-6 -5q0 -5 5 -7t11 -4.5t11 -5.5t5 -10q0 -1 -2 -7v-2q6 -4 13 -5t7 -11q0 -11 -5 -14t-12 -3q-5 0 -10.5 1t-10.5 1q-2 -2 -2.5 -1t-0.5 -1l20 -38l-2 -4q-2 0 -6 5.5t-7.5 12.5t-6 13.5t-2.5 8.5q0 5 1 6q0 1 -1 2h-5q-1 -1 -1 -6v-5.5t1 -8.5l14 -22
l-2 -4h-3q-4 10 -10.5 19.5t-6.5 22.5q3 3 3 6q0 1 -7.5 10t-7.5 18q0 7 4 12l4 6q-2 8 -2 9q0 6 6 17.5t13.5 23.5t15 22t9.5 12l3 8l7 5h3l11 16l22 7h16l20 8l41 9q1 1 1 2q-11 35 -11 58t7.5 34t20.5 24l16 11q1 0 2 0.5t2 0.5l8 3h-1h1q2 0 3 1q13 -2 30.5 -8.5
t31.5 -15.5q1 0 4 7.5l7 17.5t8 19.5t6 13.5q10 18 13.5 37.5t5.5 40.5t5 42t12 41q2 19 10.5 37.5t8.5 36.5q0 2 -0.5 4.5t-0.5 4.5l-15 9l-17 -5l-5 1q-11 -3 -18.5 -9.5t-18.5 -6.5q-2 0 -3 0.5t-2 0.5l52 23l-15 12q-1 0 -9.5 -4t-9.5 -4q2 2 6 4t11 6q-9 9 -16.5 18.5
t-7.5 23.5t6 26t6 25q0 11 -2 22.5t-5 25.5q0 10 6 25t13.5 29t14 24t7.5 10h5q2 0 6 -9t8.5 -20.5t9 -22t9.5 -13.5q5 -4 10.5 -5t10.5 -1q8 0 15.5 1t15.5 1q15 0 29 -5t27 -5q7 0 12 1t9.5 6.5t9.5 17.5t11 33q7 28 24 31zM515 791q0 1 -1 5t-2.5 9t-3 9t-2.5 4
q-4 0 -7 -5t-5.5 -10.5t-4 -10.5l-1.5 -5v1q1 -5 1 -11v-11v-17q0 -19 4 -31q-1 -1 -1.5 -2t-1.5 -2q-9 11 -8 27.5t-1 30.5q-5 -16 -12 -32t-28 -16q-12 0 -26 5t-28 5q-8 0 -16.5 -1.5t-14.5 -1.5q-31 0 -44 25q-1 0 -1 -2t2.5 -11t2.5 -27q-4 -9 -6 -10q-1 0 -3 2v19
q0 20 -4.5 31.5t-4.5 27.5q2 0 3 1l-2 17q0 1 -3 4l-2 -1q-1 0 -1 -1l1 1q-2 0 -7.5 -13t-11.5 -29q-7 -18 -15 -43q0 -13 8.5 -22.5t8.5 -20.5q0 -9 -2 -15.5t-5 -11.5t-5 -9t-2 -10t3 -18t8 -12l7 1v-2l-6 -1l4 -10l5 -2l64 13l-52 -1q0 1 1 2l-2 2l17 2q1 1 4 1h29
q8 0 18 -1t10 -5q0 -1 -2 -1h3q5 0 8 -1q0 -5 -2 -7h-4q-3 -6 -3 -7h1q-6 -6 -16 -6t-17 -3q0 -2 8.5 -3.5t16.5 -1.5q14 0 26 4t12 12q0 5 -10 13t-12 14q0 1 0.5 1.5t0.5 1.5t1 1v2q10 3 31 3q17 -5 18 -10v-2l-22 -22v-6q1 -4 4 -4l11 -3q5 -2 9.5 -3.5t12.5 -1.5
q17 0 27 7l-48 8l-6 6q1 6 5 7q1 -1 6 -1h5t8 1q23 0 45.5 -2.5t45.5 -3.5q5 8 11.5 14.5t6.5 16.5q0 7 -4 15t-9.5 16t-9.5 16t-4 14q0 9 6 17t6 19q0 18 -9.5 35t-14.5 34zM-27 -6h-2q1 0 1 -9l4 -3q4 2 7 5zM-37 1h-3q-2 -2 -2 -9q0 -14 15 -22.5t32 -8.5h5l5 5
q0 9 -3 11l-9 3q-9 0 -12 1l-10 -3q0 -1 -0.5 -1t-0.5 -1t3 -1l12 2l8 -1l2 -5h1q-3 -3 -10 -5q-14 2 -23 8t-9 17q0 5 2 9l-1 1h-2zM-27 37l-1 1q-1 0 -4.5 -5t-3.5 -10q0 -16 12 -22.5t16 -6.5t4 3q0 2 -4 8t-9 6q-2 0 -2 -2l5 -3l3 -6q0 -1 -3 -1q-5 2 -12 8t-7 15
q0 5 3.5 8t3.5 5q0 1 -0.5 1t-0.5 1zM-13 61l-4 -2l-4 -16q2 -6 2 -5l5 -7q2 -4 3 -7l7 -1q2 -2 3 -2q2 0 3 0.5t3 0.5l2 -1l2 6l-7 7l-11 3l12 -10v-2q-1 0 -1 -0.5t-1 -0.5t-1 1.5t-2 1.5h-3q-6 1 -12 21zM-4 70h-1q0 -1 -0.5 -1t-0.5 -1q0 -5 9 -12t19 -7q0 -1 -1 -1v4
l-16 8zM1 82q-1 -1 -1 -3q4 -9 11 -14.5t12 -5.5q3 0 4 1l-20 12zM37 90v-3q1 1 2 1q-3 1 -3 2h1zM14 99l-1 1l-4 -2q-1 -2 -1 -7q0 -8 3.5 -12t20.5 -12q3 1 7 1l-14 7q-10 10 -10 24h-1zM75 126q-8 -4 -17.5 -4t-17 -1t-12.5 -6t-5 -19q0 -5 3.5 -11.5t8.5 -9.5l12 -4l5 1
q3 1 4 4q0 14 -6 21t-12 9q-3 0 -3 -3q0 -2 5 -5.5t10 -11.5q0 -1 -1 -4t-5 -6q-3 0 -7 4l-5 5h-2q-1 0 -1 1l-1 -1h1q-3 4 -3 11q0 10 5 15t12.5 7t15 2.5t13.5 2.5h3q3 0 3 2v1h-3zM412 127l-22 -1q0 -9 -1.5 -17t-1.5 -16q0 -12 6 -18l16 2q6 27 6 45q0 5 -3 5zM121 135
l-30 -3q-5 -2 -5 -7q0 -1 1 -2l45 -1l-7 13h-4zM307 146h-1q-1 -1 -1 -2q1 0 1 -0.5t1 -0.5v1q1 1 1 2h-1zM291 151l-2 1l-2 -4v1q0 -2 2 -2.5t3 -0.5t2 1q-1 1 -1.5 2t-1.5 2zM503 158q-7 -1 -7 -6h2q3 0 8 5q-3 0 -3 1zM261 228l-3 -4q-1 -1 -3 -1h-4q-2 0 -2 -1l25 -7z
M675 229l-1 -14q-18 -6 -35.5 -10.5t-32.5 -8t-25 -5.5t-12 -3q-6 -1 -10.5 -1.5t-9.5 -0.5q-9 0 -11 1q-1 -1 -1 -2l14 -29q-2 -2 -3 -2t-3 2l-3 5q-1 1 -2 1q-10 -7 -24.5 -14t-25.5 -8q-6 -12 -6.5 -25t-1.5 -25q2 -6 7 -7q58 11 89 19t47.5 16.5t25.5 20.5t23 31
q6 16 6 32q0 12 -5 27zM252 235l-1 1q-3 -6 -3 -7h2q4 1 5 4q-1 0 -3 2zM136 237h-1q-6 -20 -6 -36q0 -6 1.5 -20t4 -28.5t5.5 -25t6 -10.5q51 -17 96 -28t75 -11q11 0 14 1q0 4 -0.5 12t-1.5 16t-3.5 15.5t-5.5 10.5q-6 -2 -10 -2h-13h-7q-17 0 -21 -6t-9 -11q-3 1 -6 1h-1
v2l28 58q-20 7 -36.5 11t-33 10t-34.5 15t-40 26h-1zM241 244l-5 -7q0 -2 0.5 -3t0.5 -2v-2q-2 -5 -3 -5v3q5 -4 8 -4q2 0 2 6l-4 6l4 6q-1 1 -1.5 1t-1.5 1zM596 249q-2 0 -2.5 -1.5t-2.5 -1.5t-2 1.5t-1 1.5q-3 -3 -3 -5t2 -2l12 5q-2 2 -2.5 1t-0.5 1zM572 255l-10 -5
l-25 -18q2 -2 4 -2q7 0 20 3.5t20 8.5l-3 3l-4 -2l-4 5l4 7h-2zM217 258l-1 -3q-3 -3 -6 -4q0 -1 0.5 -2.5t0.5 -2.5l-5 -5l24 -12l-2 4q0 5 1 4.5t3 1.5v11h-3q0 -5 -5 -5v-7l-4 -2q-5 2 -5 4q1 0 1 1t1 3l2 2v4q0 7 1 7t1 -1zM649 260l-8 -5q-5 -1 -10.5 -4.5t-16 -8
t-28 -9.5t-45.5 -11q-1 1 -4 1q-3 -2 -3 -3v-14q0 -9 4 -10.5t10 -1.5q12 0 28.5 3t33.5 8.5t32 13.5t25 18v3q-8 13 -18 20zM205 264l-2 1l-1 -5l-5 -3q-2 -7 -3 -8l4 -4q0 -3 1 -3q0 1 1 2l7 19q0 1 -2 1zM160 265l-15 -11l-3 -5q-2 -2 -2 -3l20 -17q8 -2 19.5 -8.5
t26.5 -13.5t34 -13.5t42 -8.5l2 9q0 1 1 2q0 5 -4 9l-20 3l-6 4q-20 3 -32.5 11.5t-22.5 10.5q-10 6 -20 11t-17 14l-1 5q-1 1 -2 1zM184 266h3q1 0 1 -4q0 -2 -4 -2q-3 0 -3 3l2 3h1zM620 267l-17 -1q-2 -6 -4 -6v2q0 -2 0.5 -3t0.5 -2t-1 -1l4 5q0 1 1 1h3q1 -1 1 -4
t-2.5 -5t-2.5 -4v1q1 0 2 -0.5t3 -0.5q8 4 18 8t16 10h-22zM175 271q-5 -2 -5.5 -2.5t-0.5 -2.5t2 -4l11 -8q2 0 2.5 -1.5t2.5 -1.5h1q0 1 -0.5 1t-0.5 1q0 4 3 9l3 6q1 0 2 -1zM523 314l-28 -149h16l5 3l14 2q0 6 -4.5 10.5t-4.5 17.5q0 16 2.5 25t6 14t9 8.5t11.5 8.5
l-6 16zM281 327h-2q-6 -6 -11.5 -16t-10 -20.5t-7 -20.5t-2.5 -15q0 -6 7.5 -12.5t16.5 -15t16.5 -19.5t7.5 -25t-4 -23q1 -4 5 -4l22 -1q-8 23 -11 48t-8 37q-8 16 -12 37.5t-7 49.5zM488 553q-6 -6 -29.5 -13t-46.5 -12q-8 2 -15 2t-15 3q-15 1 -29 7t-25 10v-7
q0 -11 -4.5 -22.5t-7.5 -21.5q-11 -29 -14.5 -56.5t-3.5 -56.5q0 -38 5 -75.5t12 -75.5q12 -42 15.5 -81t9.5 -79q-1 -3 -4 -5t-4 -4l-1 -8q0 -1 2 -1l1 1q1 1 2 1q1 -1 1.5 -2t1.5 -2l-2 -7h3l7 26l4 2q2 -2 3 -1.5t1 -2.5q0 -5 -2 -10.5t-2 -9.5q0 -7 2 -9q0 6 2 6
q4 -2 4.5 -5t1.5 -3q3 0 5 2q-1 5 -4 10t-3 10q0 1 0.5 3.5t2.5 2.5t6 -10.5t9 -12.5q1 0 1.5 0.5t1.5 0.5v-1l-3 13q1 1 3 1q0 -1 5 -6q1 0 1 -1t1 -1l-1 2q0 1 1.5 4t1.5 8q0 4 -5 9h-1q-1 0 -2 1l-6 5q-2 4 -2 12q0 28 6.5 60t6.5 67q0 29 -2.5 57t-4.5 54q0 1 1 3t3 2
q4 0 8 -13.5t6.5 -31.5t4 -36t1.5 -26q0 -23 -3.5 -46t-8.5 -46q8 -2 10 -2q8 0 16 5l1 15q1 10 1.5 19t0.5 18q0 14 -0.5 28.5t-0.5 28.5q0 9 2 23.5t5 29t6 25t6 10.5q2 -2 2 -6q0 -6 -3 -15q-3 -22 -4 -43.5t-1 -44.5q0 -20 0.5 -41t0.5 -41q0 -24 -3.5 -36t-5.5 -27
q4 -10 2.5 -17.5t6.5 -15.5h2l1 12l4 2l4 -7h2q2 2 2 6t-5 17q0 1 2 3q5 0 8 -8t3 -12q0 -5 -3 -9t-3 -7l8 1q2 2 2 4v2l-1 -1l4 2q1 -1 4 -1q5 5 5 11q0 10 -5 11t-5 6q0 3 2 3l6 -3t3 -2l7 -18l4 -1l2 6q0 5 -5 13l-13 5q-3 9 -3 18q0 14 4 28t9 28q30 106 30 208
q0 38 -4 75.5t-12 72.5q-4 8 -4 38zM406 573q-8 -3 -10 -5l15 2l-4 3h-1zM325 574l-14 -1q-1 -2 -1 -4t13 -7t30 -9.5t34 -8t25 -3.5h6q20 0 39 8.5t28 14.5l13 8q-2 1 -3.5 0.5t-3.5 1.5q-13 -2 -24.5 -7.5t-23.5 -5.5q-6 0 -10.5 2t-6.5 2q-5 0 -11.5 -4t-14.5 -4
q-10 0 -17 6q-6 -2 -14 -2q-12 0 -23 4t-21 9zM575 585l32 -5l-34 3q-1 1 -1 3q0 1 -1 1q0 -1 1 -1t1 -0.5t2 -0.5zM351 593q-7 -2 -17.5 -3t-20.5 -2t-17 -2t-8 -4l7 -6l4 -1l61 17zM286 605l6 -1v-2l-8 2zM405 617l-15 -3q0 -1 1 -1l13 -4q1 0 1 0.5t1 0.5t1 -0.5t1 -0.5
l4 -9q2 8 3.5 9.5t5.5 1.5h2q0 1 0.5 1t0.5 1v1zM342 661q13 1 28 -8.5t15 -24.5q0 -7 -3 -7q-2 0 -3 2.5t-4 2.5q-5 -2 -8 -3.5t-8 -1.5q-16 0 -29 13l-10 17l-8 3q-1 0 -1 2v1q0 1 1 2zM375 718l-13 -44h-6q-1 0 -1 1h-6q-1 0 -2 1l-6 39q2 -3 4 -8t3.5 -10.5t3 -9.5
l1.5 -4q1 0 1.5 9.5t2.5 15.5l3 -21l14 31h1zM497 667l4 -1v-4q0 -2 -4 -3q-17 -36 -36 -36q-5 0 -9.5 1.5t-9.5 2.5q-2 0 -2 -3.5t-2 -3.5q-6 0 -6 8q0 11 11 21.5t27 15.5q3 0 6.5 -0.5t6.5 -0.5q6 0 14 3zM483 701l-7 -21q-2 -2 -3 -1t-1 -1l10 23h1zM465 705v-25
q-2 -2 -3.5 -1t-1.5 -1v-1l2 1v-1l-2 4l4 24h1zM451 707l6 -30q0 -2 -3 -2q-4 8 -4 16v16h1zM333 651l-1 -1q0 -6 9 -15l10 -4q0 2 -0.5 3t-0.5 3q0 8 4 12zM667 767q-14 -5 -19 -12.5t-5 -19.5q0 -7 3 -16q26 -50 26 -103q0 -33 -10 -65t-25.5 -61.5t-34 -56.5t-34.5 -49
q-8 -16 -18 -30.5t-14 -34.5q1 -3 4 -11.5t7 -17.5t7.5 -16t5.5 -7l1 1q3 21 13 37t18 35l26 45.5t32 51.5q28 42 48 90.5t20 114.5q0 13 -1.5 28.5t-4.5 31t-8.5 29.5t-14.5 24l-4 4q-1 1 -1 2q0 -1 1 -2q-8 8 -16 8h-2zM361 647h-1q1 -1 1 -5t-2 -7.5t-2 -6.5
q2 0 2.5 -0.5t2.5 -0.5q5 0 12 4q-1 2 -4.5 5.5t-8.5 10.5zM458 650q-8 -4 -10 -10t-2 -7l9 -4q2 0 2.5 0.5t1.5 0.5h2q-4 7 -4 14q0 5 1 6zM472 657q-2 -2 -4 -2t-3 -1l-2 -1q0 -2 3 -3l2 -19q9 6 13 13.5t5 12.5h-14zM484 584l22 -8q6 1 6 4zM503 590l19 -6l1 1q1 0 1 0.5
t1 0.5q0 2 -1 3z" />
    <glyph glyph-name="sqare_ztr" unicode="&#xf522;" horiz-adv-x="982" 
d="M38 -1q-7 0 -15 2t-8 16q0 5 1 11.5t4 10.5q7 11 23.5 41.5t39 73.5t49.5 94.5t54 104t52 102t45 88t32 62.5l13 26h-165q-10 0 -18 -11q-5 -6 -16.5 -24t-24.5 -39t-24 -41.5t-16 -31.5q-4 -9 -12 -9q-4 0 -8.5 3.5t-8.5 5.5q-6 6 -6 11q0 4 1 7l42 168q6 19 17 19
q6 0 16 -2q12 -2 33.5 -3.5t47 -2t51.5 -0.5h47q11 0 23 1t23 1l25 1q33 3 71 3q20 0 20 -17q0 -8 -7 -20q-2 -4 -16 -30.5t-35.5 -67.5t-48.5 -92.5t-55 -105t-55 -105.5t-48.5 -93.5t-36 -69.5t-16.5 -33h214q9 9 23 28.5t27.5 40.5t25 39.5t14.5 24.5q4 9 10 9q3 0 10 -4
l9 -7q6 -6 6 -17q-3 -8 -10 -30.5t-14.5 -48t-14 -49.5t-9.5 -34q-2 -8 -7.5 -14t-11.5 -6q-1 0 -7 1t-11 3q-14 3 -39 4.5t-54 3t-58.5 2t-52.5 0.5h-140zM596 360q0 -20 3.5 -32t8 -18.5t10 -8.5t9.5 -2q13 0 25.5 1.5t19.5 6.5q6 3 10 3q5 0 14 -7l4 -9q1 -2 1 -6
q0 -5 -4 -13q-3 -3 -11.5 -9t-20.5 -12t-27.5 -10.5t-33.5 -4.5q-16 0 -31.5 7.5t-27.5 18.5t-19 25t-7 28v30v35t0.5 31.5t2.5 19.5v111h-37q-21 0 -21 19q0 10 5 14t13 9q7 4 19.5 16t25.5 27t24 30t16 25q3 7 8.5 10.5t10.5 3.5q12 0 15 -6.5t3 -15.5l-4 -70h98
q16 0 16 -13q0 -4 -1 -6l-8 -27q-1 -6 -5 -11t-12 -5h-90q-2 -26 -2 -51.5v-51.5v-82zM765 476q0 14 -1 22.5t-3.5 14t-7 9t-10.5 7.5l-14 9q-11 4 -11 15v4q0 11 10 16q10 6 22.5 14t25 15.5t24 12.5t19.5 5t11 -6t5 -13v-34q19 24 41.5 41t45.5 17q25 0 37 -14.5t12 -31.5
q0 -23 -14.5 -37t-27.5 -14t-23 6l-6 4q-5 4 -18 4q-8 0 -18 -6.5t-18 -23.5q-3 -6 -5 -13.5t-2 -8.5v-174q0 -23 12 -23h35q10 0 12.5 -5t2.5 -13v-14q0 -18 -13 -18h-11q-10 1 -28.5 2t-41.5 1q-27 0 -46.5 -1.5t-29.5 -1.5h-7q-6 0 -10 3.5t-4 14.5v14q0 10 3.5 14
t14.5 4h30q6 0 6 6q1 20 1 43.5v55.5v78zM485 201h478v-79h-478v79z" />
    <glyph glyph-name="lbbar" unicode="&#x2114;" horiz-adv-x="541" 
d="M386 363q-22 0 -53.5 3.5t-73.5 10.5q-42 8 -73.5 11t-51.5 3q-110 0 -110 -53q0 -23 22 -36q2 -1 6.5 -2t8.5 -3q7 -2 14.5 -5t21.5 -8q7 21 15 41t17 42l81 -4l-13 -39l-19 -57q17 -2 37 -4t54 -5q2 6 5 14.5t5 14.5q5 17 11 34.5t10 31.5l87 -9l-30 -93
q114 -15 114 -102q0 -23 -7.5 -42.5t-21.5 -39.5q-61 -72 -125 -72q-29 0 -54 12.5t-43 36.5q-64 -44 -95 -44q-38 0 -61 23q-21 20 -21 54q0 17 4 38t12 47q1 2 1 4.5t1 4.5v-1q3 10 5.5 18.5t5.5 15.5v-1q2 8 3 11q3 6 3.5 11.5t2.5 12.5q-104 29 -104 97q0 26 13 48
t35 39q59 39 155 39q31 0 60.5 -3.5t59.5 -10.5q3 -1 12 -3t23 -7q6 -2 11.5 -4.5t13.5 -4.5q42 -16 49 -16q8 0 14 5t8 10q5 31 26 31q6 0 14.5 -3.5t15.5 -8.5t12 -11t5 -11q0 -30 -49 -47q-16 -6 -34 -10t-35 -4zM403 162q0 39 -61 48q-28 -70 -40 -105t-12 -40
q0 -15 17 -15q38 0 67 47q29 37 29 65zM155 56q54 26 100 159q-21 0 -44 2t-48 6q-23 -72 -34.5 -112.5t-11.5 -51.5t13 -11q9 0 25 8zM263 238q-4 -11 -5.5 -15.5t-3.5 -7.5h23z" />
    <glyph glyph-name="longs_k" unicode="&#xf4fc;" horiz-adv-x="548" 
d="M425 355l-70 35v-261l124 -45l-55 -84l-168 61v453l-119 47v-738l-98 -59v803l91 95l128 -44h1l96 44v-248l54 58l88 -43l-54 -113h82l-42 -99h-124z" />
    <glyph glyph-name="longs_h" unicode="&#xeba1;" horiz-adv-x="590" 
d="M359 668v-252l45 51l150 -38v-603l-98 -54v580l-97 25v-253l62 -36l-49 -85l-112 64v444l-123 50v-738l-98 -59v803l91 95l130 -45h1z" />
    <glyph glyph-name="f_j" unicode="&#xeec9;" horiz-adv-x="457" 
d="M403 -160l-83 -76l-80 61l65 59v469l-36 22h-112v-555l-99 -56v611h-44v99h44v133l115 97l133 -71l-27 -99l-122 66v-126h141l103 -67zM344 636h85l-50 -134h-64z" />
    <glyph glyph-name="threesuperior" unicode="&#xb3;" horiz-adv-x="284" 
d="M82 706h99l75 -76l-67 -89q8 -2 24.5 -5t31.5 -6l1 -197l-78 -60l-156 30l67 84l69 -12q0 18 -0.5 35t-0.5 40q-9 2 -17.5 4t-18.5 4l-53 11l95 127l-11 11h-122z" />
    <glyph glyph-name="twosuperior" unicode="&#xb2;" horiz-adv-x="317" 
d="M166 361h123l-67 -98h-212l156 202v120q-5 2 -9 2.5t-15 2.5q-1 -20 -1 -43.5v-37.5l-98 25v99l65 63l156 -32v-177z" />
    <glyph glyph-name="longs_longs_i" unicode="&#xeba7;" horiz-adv-x="628" 
d="M348 561v-738l-98 -59v758l-119 39v-738l-98 -59v803l92 95l164 -55l53 55l106 -44l-19 -96zM479 636h85l-51 -134h-64zM453 466l104 -66v-276l62 -36l-49 -85l-111 64v279l-58 37z" />
    <glyph glyph-name="sterling" unicode="&#xa3;" horiz-adv-x="386" 
d="M37 294h45v317l102 105l131 -53l-30 -94l-105 45v-320h86l-19 -70h-68l-57 -75l251 -52l-19 -97l-343 69l71 86v69h-65z" />
    <glyph glyph-name="cent" unicode="&#xa2;" horiz-adv-x="288" 
d="M182 -34l-34 11v42l-125 31v319l125 102v36l34 -11v-30l101 -22l-49 -96l-52 11v-247l104 -26l-59 -86l-45 11v-45zM122 127l26 -7v247l-26 6v-246z" />
    <glyph glyph-name="asciitilde" unicode="~" horiz-adv-x="504" 
d="M82 419l104 53l188 -52l102 48l-40 -113l-89 -48l-193 52l-112 -53z" />
    <glyph glyph-name="yen" unicode="&#xa5;" horiz-adv-x="416" 
d="M356 231h-80v-33h103l-23 -47h-80v-27l62 -36l-49 -85l-111 64v84h-117l23 47h94v33h-117l23 47h94v79l-131 43v188l-59 36l51 84l107 -64v-173l128 -44l2 1v169l-46 24l45 87l100 -51l-1 -260l-97 -72h-1v-47h103z" />
    <glyph glyph-name="germandblS" unicode="&#x1e9e;" horiz-adv-x="447" 
d="M18 607l122 104l294 -98l-177 -196l160 -68v-443l-123 -109l-142 49l32 93l135 -46v390l-154 66l176 195l-224 73v-797l-99 -56v843z" />
    <glyph glyph-name="longs_l" unicode="&#xeba3;" horiz-adv-x="403" 
d="M333 618v-509l70 -26l-33 -91l-136 49v468l-111 55v-744l-98 -56v807l115 97l129 -68z" />
    <glyph glyph-name="longs_longs_l" unicode="&#xeba8;" horiz-adv-x="633" 
d="M491 601l64 18v-506l70 -26l-33 -91l-136 49v465l-108 51v-738l-98 -59v758l-119 39v-738l-98 -59v803l92 95l164 -55l53 55z" />
    <glyph glyph-name="longs_longs_k" unicode="&#xf4fe;" horiz-adv-x="742" 
d="M636 355l-70 35v-261l124 -45l-55 -84l-168 61v453l-119 47v-738l-98 -59v758l-119 39v-738l-98 -59v803l92 95l163 -55l53 55l128 -44h1l96 44v-248l54 58l88 -43l-54 -113h82l-42 -99h-124z" />
    <glyph glyph-name="f_f_i" unicode="&#xfb03;" horiz-adv-x="719" 
d="M540 474l103 -67v-283l64 -36l-49 -85l-111 64v286l-36 22h-112v-555l-99 -56v611h-142v-555l-99 -56v611h-44v99h44v133l115 97l123 -74l-50 -84l-89 54v-126h142v133l115 97l133 -71l-27 -99l-122 66v-126h141zM586 636h85l-50 -134h-64z" />
    <glyph glyph-name="Agrave" unicode="&#xc0;" horiz-adv-x="438" 
d="M139 449v-138h152v115l-300 75l67 85l331 -84v-380l62 -38l-49 -84l-111 65v147h-152v-90l62 -38l-49 -84l-112 65v318zM116 723h125l57 -162l-50 -4z" />
    <glyph glyph-name="Aacute" unicode="&#xc1;" horiz-adv-x="438" 
d="M139 449v-138h152v115l-300 75l67 85l331 -84v-380l62 -38l-49 -84l-111 65v147h-152v-90l62 -38l-49 -84l-112 65v318zM195 573l-50 4l57 162h125z" />
    <glyph glyph-name="Acircumflex" unicode="&#xc2;" horiz-adv-x="438" 
d="M139 449v-138h152v115l-300 75l67 85l331 -84v-380l62 -38l-49 -84l-111 65v147h-152v-90l62 -38l-49 -84l-112 65v318zM128 622l100 101l100 -101v-43l-100 44l-100 -44v43z" />
    <glyph glyph-name="Atilde" unicode="&#xc3;" horiz-adv-x="438" 
d="M139 449v-138h152v115l-300 75l67 85l331 -84v-380l62 -38l-49 -84l-111 65v147h-152v-90l62 -38l-49 -84l-112 65v318zM337 705h20q-8 -34 -23 -55q-26 -35 -69 -35q-26 0 -96 22q-27 9 -44 9q-25 0 -33 -29h-19q7 34 19 52q26 38 70 38q22 0 52 -9q13 -3 43 -13
q30 -9 45 -9q16 0 25 10q5 6 10 19z" />
    <glyph glyph-name="Ntilde" unicode="&#xd1;" horiz-adv-x="421" 
d="M153 600l218 -74v-407l59 -36l-51 -84l-107 64v393l-131 45v-391l46 -24l-44 -87l-100 51v434l-50 26l46 87l96 -51zM308 718h20q-8 -34 -23 -55q-26 -35 -69 -35q-26 0 -96 22q-27 9 -44 9q-25 0 -33 -29h-19q7 34 19 52q26 38 70 38q22 0 52 -9q13 -3 43 -13
q30 -9 45 -9q16 0 25 10q5 6 10 19z" />
    <glyph glyph-name="agrave" unicode="&#xe0;" horiz-adv-x="403" 
d="M131 379v-248l119 -35v257zM252 66l-41 -66l-181 59v338l113 80l209 -45v-308l58 -36l-50 -85l-85 50zM91 662h125l57 -162l-50 -4z" />
    <glyph glyph-name="aacute" unicode="&#xe1;" horiz-adv-x="403" 
d="M131 379v-248l119 -35v257zM252 66l-41 -66l-181 59v338l113 80l209 -45v-308l58 -36l-50 -85l-85 50zM148 515l-50 4l57 162h125z" />
    <glyph glyph-name="acircumflex" unicode="&#xe2;" horiz-adv-x="403" 
d="M131 379v-248l119 -35v257zM252 66l-41 -66l-181 59v338l113 80l209 -45v-308l58 -36l-50 -85l-85 50zM103 545l100 101l100 -101v-43l-100 44l-100 -44v43z" />
    <glyph glyph-name="atilde" unicode="&#xe3;" horiz-adv-x="403" 
d="M131 379v-248l119 -35v257zM252 66l-41 -66l-181 59v338l113 80l209 -45v-308l58 -36l-50 -85l-85 50zM325 614h20q-8 -34 -23 -55q-26 -35 -69 -35q-26 0 -96 22q-27 9 -44 9q-25 0 -33 -29h-19q7 34 19 52q26 38 70 38q22 0 52 -9q13 -3 43 -13q30 -9 45 -9q16 0 25 10
q5 6 10 19z" />
    <glyph glyph-name="cedilla" unicode="&#xb8;" horiz-adv-x="500" 
d="M271 0h33l-48 -75q26 7 46 7q36 0 60 -18q27 -19 27 -51q0 -44 -43 -64q-30 -13 -78 -13q-32 0 -74 7q-23 4 -37 10l10 22q27 -9 58 -9q28 0 45 10q20 11 20 35q0 17 -13 27q-11 8 -28 8q-15 0 -27 -6l-14 14z" />
    <glyph glyph-name="ccedilla" unicode="&#xe7;" horiz-adv-x="288" 
d="M234 348l-112 25v-246l164 -41l-59 -86l-55 13l-37 -57q26 7 46 7q36 0 60 -18q27 -19 27 -51q0 -44 -43 -64q-30 -13 -78 -13q-32 0 -74 7q-23 4 -37 10l10 22q27 -9 58 -9q28 0 45 10q20 11 20 35q0 17 -13 27q-11 8 -28 8q-15 0 -27 -6l-14 14l56 85l-120 30v319
l127 104l133 -29z" />
    <glyph glyph-name="egrave" unicode="&#xe8;" horiz-adv-x="312" 
d="M324 406l-206 -273l164 -45l-42 -88l-221 57v303l105 111zM118 189l110 145l-110 36v-181zM65 651h125l57 -162l-50 -4z" />
    <glyph glyph-name="eacute" unicode="&#xe9;" horiz-adv-x="312" 
d="M324 406l-206 -273l164 -45l-42 -88l-221 57v303l105 111zM118 189l110 145l-110 36v-181zM115 509l-50 4l57 162h125z" />
    <glyph glyph-name="ecircumflex" unicode="&#xea;" horiz-adv-x="312" 
d="M324 406l-206 -273l164 -45l-42 -88l-221 57v303l105 111zM118 189l110 145l-110 36v-181zM56 523l100 101l100 -101v-43l-100 44l-100 -44v43z" />
    <glyph glyph-name="otilde" unicode="&#xf5;" horiz-adv-x="360" 
d="M157 472l176 -53v-331l-132 -88l-176 53v337zM233 92v254l-108 34v-254zM303 600h20q-8 -34 -23 -55q-26 -35 -69 -35q-26 0 -96 22q-27 9 -44 9q-25 0 -33 -29h-19q7 34 19 52q26 38 70 38q22 0 52 -9q13 -3 43 -13q30 -9 45 -9q16 0 25 10q5 6 10 19z" />
    <glyph glyph-name="oacute" unicode="&#xf3;" horiz-adv-x="360" 
d="M157 472l176 -53v-331l-132 -88l-176 53v337zM233 92v254l-108 34v-254zM139 503l-50 4l57 162h125z" />
    <glyph glyph-name="ocircumflex" unicode="&#xf4;" horiz-adv-x="360" 
d="M157 472l176 -53v-331l-132 -88l-176 53v337zM233 92v254l-108 34v-254zM80 541l100 101l100 -101v-43l-100 44l-100 -44v43z" />
    <glyph glyph-name="ugrave" unicode="&#xf9;" horiz-adv-x="417" 
d="M233 0l-176 62v285l-62 35l49 85l111 -64v-272l112 -39v255l-62 35l49 85l111 -64v-279l58 -37l-52 -83l-90 57zM60 674h125l57 -162l-50 -4z" />
    <glyph glyph-name="uacute" unicode="&#xfa;" horiz-adv-x="417" 
d="M233 0l-176 62v285l-62 35l49 85l111 -64v-272l112 -39v255l-62 35l49 85l111 -64v-279l58 -37l-52 -83l-90 57zM172 497l-50 4l57 162h125z" />
    <glyph glyph-name="ucircumflex" unicode="&#xfb;" horiz-adv-x="417" 
d="M233 0l-176 62v285l-62 35l49 85l111 -64v-272l112 -39v255l-62 35l49 85l111 -64v-279l58 -37l-52 -83l-90 57zM84 556l100 101l100 -101v-43l-100 44l-100 -44v43z" />
    <glyph glyph-name="ntilde" unicode="&#xf1;" horiz-adv-x="418" 
d="M49 466l96 -61l41 66l176 -63v-284l62 -36l-49 -85l-111 64v271l-112 37v-251l62 -36l-48 -85l-112 64v279l-58 37zM308 599h20q-8 -34 -23 -55q-26 -35 -69 -35q-26 0 -96 22q-27 9 -44 9q-25 0 -33 -29h-19q7 34 19 52q26 38 70 38q22 0 52 -9q13 -3 43 -13
q30 -9 45 -9q16 0 25 10q5 6 10 19z" />
    <glyph glyph-name="igrave" unicode="&#xec;" horiz-adv-x="205" 
d="M44 466l104 -66v-276l62 -36l-49 -85l-111 64v279l-58 37zM-58 666h125l57 -162l-50 -4z" />
    <glyph glyph-name="iacute" unicode="&#xed;" horiz-adv-x="205" 
d="M44 466l104 -66v-276l62 -36l-49 -85l-111 64v279l-58 37zM66 499l-50 4l57 162h125z" />
    <glyph glyph-name="icircumflex" unicode="&#xee;" horiz-adv-x="205" 
d="M44 466l104 -66v-276l62 -36l-49 -85l-111 64v279l-58 37zM-3 547l100 101l100 -101v-43l-100 44l-100 -44v43z" />
    <glyph glyph-name="idieresis" unicode="&#xef;" horiz-adv-x="205" 
d="M44 466l104 -66v-276l62 -36l-49 -85l-111 64v279l-58 37zM137 636h85l-51 -106h-65zM14 636h85l-51 -106h-65z" />
    <glyph glyph-name="Ccedilla" unicode="&#xc7;" horiz-adv-x="325" 
d="M123 604v-472l174 -42l-24 -94l-82 20l-37 -58q26 7 46 7q36 0 60 -18q27 -19 27 -51q0 -44 -43 -64q-30 -13 -78 -13q-32 0 -74 7q-23 4 -37 10l10 22q27 -9 58 -9q28 0 45 10q20 11 20 35q0 17 -13 27q-11 8 -28 8q-15 0 -27 -6l-14 14l56 86l-133 32v577l103 72
l180 -67l-28 -94z" />
    <glyph glyph-name="Egrave" unicode="&#xc8;" horiz-adv-x="390" 
d="M187 494v-104h163l-36 -98h-124v-160l171 -42l-23 -94l-244 59v237h-83l35 98h44v132l106 72l180 -67l-28 -94zM104 758h125l57 -162l-50 -4z" />
    <glyph glyph-name="Eacute" unicode="&#xc9;" horiz-adv-x="390" 
d="M187 494v-104h163l-36 -98h-124v-160l171 -42l-23 -94l-244 59v237h-83l35 98h44v132l106 72l180 -67l-28 -94zM154 592l-50 4l57 162h125z" />
    <glyph glyph-name="Ecircumflex" unicode="&#xca;" horiz-adv-x="390" 
d="M187 494v-104h163l-36 -98h-124v-160l171 -42l-23 -94l-244 59v237h-83l35 98h44v132l106 72l180 -67l-28 -94zM95 634l100 101l100 -101v-43l-100 44l-100 -44v43z" />
    <glyph glyph-name="Edieresis" unicode="&#xcb;" horiz-adv-x="390" 
d="M187 494v-104h163l-36 -98h-124v-160l171 -42l-23 -94l-244 59v237h-83l35 98h44v132l106 72l180 -67l-28 -94zM255 716h85l-51 -106h-65zM132 716h85l-51 -106h-65z" />
    <glyph glyph-name="Eth" unicode="&#xd0;" horiz-adv-x="433" 
d="M25 364l43 12v222l-46 7l18 98l367 -65v-524l-105 -108l-288 47l54 83v155l-47 -13zM167 128l142 -24v452l-142 25v-177l47 14l-4 -86l-43 -13v-191z" />
    <glyph glyph-name="Ograve" unicode="&#xd2;" horiz-adv-x="405" 
d="M281 103v353l-148 28v-353zM125 586l258 -52v-444l-93 -90l-258 52v445zM111 756h125l57 -162l-50 -4z" />
    <glyph glyph-name="Oacute" unicode="&#xd3;" horiz-adv-x="405" 
d="M281 103v353l-148 28v-353zM125 586l258 -52v-444l-93 -90l-258 52v445zM161 611l-50 4l57 162h125z" />
    <glyph glyph-name="Ocircumflex" unicode="&#xd4;" horiz-adv-x="405" 
d="M281 103v353l-148 28v-353zM125 586l258 -52v-444l-93 -90l-258 52v445zM102 644l100 101l100 -101v-43l-100 44l-100 -44v43z" />
    <glyph glyph-name="Otilde" unicode="&#xd5;" horiz-adv-x="405" 
d="M281 103v353l-148 28v-353zM125 586l258 -52v-444l-93 -90l-258 52v445zM325 711h20q-8 -34 -23 -55q-26 -35 -69 -35q-26 0 -96 22q-27 9 -44 9q-25 0 -33 -29h-19q7 34 19 52q26 38 70 38q22 0 52 -9q13 -3 43 -13q30 -9 45 -9q16 0 25 10q5 6 10 19z" />
    <glyph glyph-name="Igrave" unicode="&#xcc;" 
d="M68 593l224 -47v-144h55l-28 -98h-27v-198l-117 -106l-180 47l24 95l175 -46v208h-144l28 98h116v65l-174 36zM88 754h125l57 -162l-50 -4z" />
    <glyph glyph-name="Iacute" unicode="&#xcd;" 
d="M68 593l224 -47v-144h55l-28 -98h-27v-198l-117 -106l-180 47l24 95l175 -46v208h-144l28 98h116v65l-174 36zM138 606l-50 4l57 162h125z" />
    <glyph glyph-name="Icircumflex" unicode="&#xce;" 
d="M68 593l224 -47v-144h55l-28 -98h-27v-198l-117 -106l-180 47l24 95l175 -46v208h-144l28 98h116v65l-174 36zM79 656l100 101l100 -101v-43l-100 44l-100 -44v43z" />
    <glyph glyph-name="Yacute" unicode="&#xdd;" horiz-adv-x="411" 
d="M272 588l110 -61v-613l-116 -96l-216 43l143 143l-151 32v441l-56 27l45 87l107 -54v-424l145 -34v390l-58 33zM283 -84v148l-123 -125zM201 567l-50 4l57 162h125z" />
    <glyph glyph-name="ograve" unicode="&#xf2;" horiz-adv-x="360" 
d="M157 472l176 -53v-331l-132 -88l-176 53v337zM233 92v254l-108 34v-254zM89 668h125l57 -162l-50 -4z" />
    <glyph glyph-name="Zcaron" unicode="&#x17d;" horiz-adv-x="324" 
d="M216 437l-223 74l37 90l279 -95l-177 -196l160 -68l2 -336l-123 -109l-205 70l32 93l198 -67l-2 283l-154 66zM257 702l-100 -101l-100 101v43l100 -44l100 44v-43z" />
    <glyph glyph-name="scaron" unicode="&#x161;" horiz-adv-x="349" 
d="M277 596l-100 -101l-100 101v43l100 -44l100 44v-43zM182 327l146 -47v-185l-102 -96l-212 62l60 85l155 -46v108l-40 14l-24 -77l-144 45v186l102 96l207 -62l-52 -87l-158 47v-108l37 -12z" />
    <glyph glyph-name="zcaron" unicode="&#x17e;" horiz-adv-x="300" 
d="M253 581l-100 -101l-100 101v43l100 -44l100 44v-43zM175 332l-144 51l36 91l230 -81l-136 -134l110 -44v-342l-124 -109l-204 70l32 93l197 -68l1 290l-134 49z" />
    <glyph glyph-name="dollar" unicode="$" horiz-adv-x="382" 
d="M209 -52h-32v76l-163 56l28 94l135 -47v204l-52 -60l-83 21v340l103 72l32 -11v68h32v-78l159 -52l-28 -94l-131 43v-161l38 44l101 -26v-365l-102 -72l-37 13v-65zM255 100v261l-44 10l-2 -3v-252zM136 604v-235l26 -5l15 17v209z" />
    <glyph glyph-name="numbersign" unicode="#" horiz-adv-x="515" 
d="M56 338h91l49 98h-95l40 110h109l53 107l78 31l-68 -138h63l53 107l78 31l-68 -138h54l-41 -110h-67l-49 -98h87l-41 -110h-100l-45 -93l-79 -31l61 124h-63l-45 -93l-79 -31l61 124h-77zM210 338h63l49 98h-63z" />
    <glyph glyph-name="Ugrave" unicode="&#xd9;" horiz-adv-x="416" 
d="M268 -1l-217 73v394l-59 36l50 84l107 -64v-379l131 -45v377l-46 24l45 87l99 -51v-421l50 -26l-45 -87l-97 51zM47 723h125l57 -162l-50 -4z" />
    <glyph glyph-name="Uacute" unicode="&#xda;" horiz-adv-x="416" 
d="M268 -1l-217 73v394l-59 36l50 84l107 -64v-379l131 -45v377l-46 24l45 87l99 -51v-421l50 -26l-45 -87l-97 51zM182 572l-50 4l57 162h125z" />
    <glyph glyph-name="Ucircumflex" unicode="&#xdb;" horiz-adv-x="416" 
d="M268 -1l-217 73v394l-59 36l50 84l107 -64v-379l131 -45v377l-46 24l45 87l99 -51v-421l50 -26l-45 -87l-97 51zM100 650l100 101l100 -101v-43l-100 44l-100 -44v43z" />
    <glyph glyph-name="ampersand" unicode="&#x26;" horiz-adv-x="561" 
d="M539 0l-130 2l-48 108l-176 -120l-142 310l179 104l-69 149l129 99l190 -64l-63 -84l-141 47l158 -336l77 45l20 -39l-74 -45zM343 152l-101 213l-96 -58l102 -215z" />
    <glyph glyph-name="zero_width_non-joiner" unicode="&#x200c;" horiz-adv-x="0" 
 />
    <glyph glyph-name="macron" unicode="&#xaf;" horiz-adv-x="408" 
d="M61 671h293v-59h-293v59z" />
    <glyph glyph-name="nonbreakingspace" unicode="&#xa0;" horiz-adv-x="283" 
 />
  </font>
</defs>
</svg>
